<svg width="202" height="202" xmlns="http://www.w3.org/2000/svg"><g fill="none" fill-rule="evenodd"><circle opacity=".203" transform="matrix(0 -1 -1 0 202 202)" cx="101" cy="101" r="101"/><g transform="translate(1 37)" fill-rule="nonzero"><path d="M172.225 2.485a8.064 8.064 0 00-2.937.398c-1.4.621-2.763 3.896-3.734 9.035a62.746 62.746 0 00-1.089 13.508 2.534 2.534 0 001.12 2.02c4.356 3.106 19.136-.69 20.704-1.107.747-1.429 7.555-14.807 4.2-18.404-2.95-3.188-12.844-5.45-18.264-5.45z" fill="#FFF"/><path d="M171.391 29.272c-2.557 0-4.822-.354-6.179-1.336a3.143 3.143 0 01-1.388-2.485c-.367-7.01 1.581-21.611 5.209-23.164 3.628-1.554 18.046 1.056 21.93 5.207 3.883 4.15-3.84 18.64-4.17 19.262a.323.323 0 01-.199.161c-.48.112-8.774 2.355-15.203 2.355zm.834-26.787a8.064 8.064 0 00-2.937.398c-1.4.621-2.763 3.896-3.734 9.035a62.746 62.746 0 00-1.089 13.508 2.534 2.534 0 001.12 2.02c4.356 3.106 19.136-.69 20.704-1.107.747-1.429 7.555-14.807 4.2-18.404-2.95-3.188-12.844-5.45-18.264-5.45z" fill="#231F20"/><path d="M130.438 110.086a30.772 30.772 0 0018.29-25.755l-10.3-11.048-14.156 27.296" fill="#FFF"/><path d="M130.438 110.41a.324.324 0 01-.112-.622 30.691 30.691 0 0018.078-25.345L138.51 73.83l-13.946 26.892a.324.324 0 01-.573-.292l14.158-27.296a.311.311 0 01.242-.168.318.318 0 01.28.093l10.3 11.054a.329.329 0 01.086.249 31.338 31.338 0 01-18.507 26.022.244.244 0 01-.112.025z" fill="#231F20"/><path fill="#231F20" d="M162.362 126.962l31.152-.602-.43-39.17-45.744 1.646-6.366 38.126z"/><path d="M162.362 127.273h-21.388a.305.305 0 01-.237-.112.286.286 0 01-.068-.248l6.366-38.127a.305.305 0 01.292-.261l45.745-1.647a.343.343 0 01.224.087c.064.057.1.139.1.224l.429 39.146a.31.31 0 01-.305.317l-31.152.621h-.006zm-21.021-.621h21.02l30.842-.622-.423-38.524-45.179 1.628-6.26 37.518z" fill="#231F20"/><path d="M199.519 43.731c-2.788-3.784-9.459-5.778-13.952-6.493-4.325-.683-8.656 0-13-.373a38.276 38.276 0 00-11.823 1.156c-14.493 4.002-27.966 24.954-27.966 24.954l14.773.776s-2.146 15.429-8.307 49.237c25.663.913 55.533 3.46 55.533 3.46s.13-7.076.454-14.042c2.315-2.156 2.234-5.592 2.658-7.587.547-2.566-.56-30.446-.56-30.446l3.366-1.243s.044-17.77-1.176-19.399z" fill="#E7816B"/><path fill="#231F20" d="M165 43.34l-11.257 73.935 13.442 1.349 15.29-75.44z"/><path d="M167.185 118.934h-.031l-13.448-1.348a.33.33 0 01-.218-.118.298.298 0 01-.056-.236L164.69 43.29a.311.311 0 01.305-.26l17.468-.156a.3.3 0 01.243.112.31.31 0 01.068.26L167.49 118.68a.31.31 0 01-.305.254zm-13.068-1.932l12.837 1.286 15.135-74.793-16.802.15-11.17 73.357z" fill="#231F20"/><path d="M166.998 34.07l-1.935 9.27s2.06 6.157 8.301 5.505a12.492 12.492 0 009.11-5.66l2.216-17.038s-4.163-2.989-1.537-12.527a30.306 30.306 0 01-16 .075s-4.163 10.171-4.057 14.912c.106 4.741 3.902 5.462 3.902 5.462z" fill="#FFF"/><path d="M172.462 49.218c-5.7 0-7.68-5.717-7.704-5.779a.304.304 0 010-.168l1.867-8.966c-.959-.298-3.734-1.516-3.846-5.654-.1-4.785 3.908-14.658 4.082-15.074a.324.324 0 01.38-.193 30.262 30.262 0 0015.812-.068.317.317 0 01.41.385c-2.532 9.22 1.382 12.16 1.42 12.185a.31.31 0 01.13.304l-2.215 17.038a.304.304 0 01-.044.118 12.666 12.666 0 01-9.334 5.816 8.17 8.17 0 01-.958.056zm-7.063-5.903c.267.733 2.327 5.791 7.934 5.213a12.293 12.293 0 008.83-5.45l2.184-16.776c-.746-.621-3.764-3.902-1.655-12.197a31.496 31.496 0 01-15.345 0c-.623 1.615-4.02 10.32-3.933 14.552.093 4.443 3.49 5.095 3.64 5.126.084.013.158.06.205.13.05.073.068.163.05.25l-1.91 9.152z" fill="#231F20"/><path d="M181.186 25.376a3.978 3.978 0 011.624-1.932 7.008 7.008 0 012.26-.777 3.004 3.004 0 011.306-.062c.296.093.572.238.815.429a3.107 3.107 0 011.245 1.721c.088.584.035 1.18-.156 1.74a6.96 6.96 0 01-.715 1.77 4.823 4.823 0 01-6.671 1.647" fill="#FFF"/><path d="M183.439 30.937a5.196 5.196 0 01-2.7-.751.323.323 0 01.092-.587.318.318 0 01.243.04 4.617 4.617 0 003.435.534 4.555 4.555 0 002.8-2.069 6.674 6.674 0 00.679-1.696 3.35 3.35 0 00.15-1.578 2.803 2.803 0 00-1.127-1.535 2.16 2.16 0 00-.71-.38 2.755 2.755 0 00-1.157.063 6.958 6.958 0 00-2.19.74 3.661 3.661 0 00-1.494 1.776.333.333 0 01-.622-.236 4.351 4.351 0 011.755-2.088 7.357 7.357 0 012.414-.801c.473-.13.969-.15 1.45-.056.338.1.653.264.927.485a3.356 3.356 0 011.376 1.907 3.983 3.983 0 01-.156 1.864 7.45 7.45 0 01-.747 1.864 5.214 5.214 0 01-3.192 2.368c-.402.095-.813.14-1.226.136zM166.251 38.704a7.931 7.931 0 006.46-1.18c3.012-2.206 2.98-3.728 2.98-3.728s-4.61 1.777-8.469.453l-.97 4.455z" fill="#231F20"/><path d="M168.224 39.257a7.933 7.933 0 01-2.06-.254.304.304 0 01-.211-.36l.97-4.468a.298.298 0 01.15-.205.293.293 0 01.249 0c3.702 1.242 8.214-.429 8.257-.448a.3.3 0 01.28 0 .292.292 0 01.137.249c0 .068 0 1.709-3.111 3.983a7.83 7.83 0 01-4.661 1.503zm-1.606-.782a7.639 7.639 0 005.912-1.2c1.836-1.348 2.49-2.417 2.72-3-1.307.415-4.711 1.292-7.798.372l-.834 3.828z" fill="#231F20"/><path d="M172.568 20.2s-3.952 4.157-3.342 5.102c.61.944 2.794.795 2.794.795" fill="#FFF"/><path d="M171.56 26.39c-.741 0-2.079-.119-2.596-.92-.672-1.032 2.135-4.182 3.373-5.48a.311.311 0 01.534.217c0 .081-.033.16-.092.217-2.016 2.125-3.56 4.35-3.304 4.722.41.622 1.991.665 2.489.622.17-.015.32.11.336.28a.31.31 0 01-.286.335c-.025-.006-.212.006-.455.006z" fill="#231F20"/><ellipse fill="#231F20" transform="rotate(-68.08 177.918 20.975)" cx="177.918" cy="20.975" rx="1.112" ry="1"/><ellipse fill="#231F20" transform="rotate(-68.08 169.72 19.636)" cx="169.72" cy="19.636" rx="1.112" ry="1"/><path d="M172.014 31.633c-.32 0-.637-.04-.946-.118-4.306-1.037-4.207-6.058-4.207-6.108a.317.317 0 01.324-.298.305.305 0 01.298.317c0 .186-.08 4.567 3.734 5.487 3.815.92 5.7-5.102 5.719-5.164a.31.31 0 11.591.187c-.08.248-1.83 5.697-5.513 5.697z" fill="#231F20"/><path d="M36 45.98l23.26 26.03 32.547 11.364-4.157 8.587s-21.127-3.187-29.447-4.12c-8.32-.931-18.837-13.408-18.837-13.408L36 45.98z" fill="#FFF"/><path d="M87.65 92.266h-.044c-.211 0-21.22-3.194-29.44-4.12-8.345-.938-18.607-12.999-19.036-13.515a.28.28 0 01-.075-.161l-3.367-28.49a.323.323 0 01.18-.316.311.311 0 01.362.074L59.44 71.705l32.471 11.34a.31.31 0 01.18.174.304.304 0 010 .254l-4.162 8.612c-.05.11-.16.181-.28.18zm-47.985-17.97c.865 1.007 10.79 12.353 18.569 13.229 7.779.876 26.927 3.728 29.248 4.088l3.908-8.077-32.216-11.253a.305.305 0 01-.131-.087l-22.62-25.283 3.242 27.383z" fill="#231F20"/><path d="M47.294 33.075c-.323-2.181-1.2-4.238-1.867-6.332-1.68-5.076-1.923-10.314-3.684-15.372C39.484 4.865 35.147.13 27.561.398a7.735 7.735 0 00-7.137 4.76c-3.591-1.977-8.376 2.044-8.544 5.722-.25 5.424.1 10.054-2.266 15.192-1.792 3.902-4.567 7.556-4.797 11.843-.23 4.288 2.202 8.295 5.687 10.663 3.485 2.367 7.878 3.156 12.079 2.846 4.2-.311 8.264-1.653 12.166-3.256a31.45 31.45 0 005.5-2.771c3.965-2.647 7.804-7.277 7.045-12.322z" fill="#FFF"/><path d="M20.853 51.797a18.69 18.69 0 01-10.523-2.964c-3.734-2.554-6.049-6.835-5.825-10.93.168-3.163 1.7-6.002 3.18-8.749.567-1.05 1.152-2.131 1.65-3.212 1.916-4.194 2.022-7.923 2.14-12.272 0-.913.05-1.864.093-2.802.1-2.138 1.7-4.487 3.902-5.717a5.222 5.222 0 014.81-.41A7.997 7.997 0 0127.53.093c6.845-.223 11.861 3.623 14.493 11.185a56.722 56.722 0 011.923 7.922 58.372 58.372 0 001.761 7.456c.175.516.355 1.038.542 1.554a26.39 26.39 0 011.369 4.834c.771 5.25-3.211 9.942-7.2 12.62a31.239 31.239 0 01-5.57 2.802c-3.28 1.348-7.629 2.939-12.259 3.28-.572.032-1.157.05-1.736.05zm-2.49-46.851a5.333 5.333 0 00-2.594.74c-2.023 1.13-3.497 3.274-3.585 5.206-.043.951-.068 1.865-.093 2.79-.118 4.232-.224 8.22-2.197 12.52-.504 1.094-1.095 2.188-1.667 3.244-1.444 2.684-2.944 5.468-3.112 8.488-.205 3.877 1.973 7.953 5.557 10.39 3.15 2.13 7.362 3.106 11.88 2.789 4.518-.317 8.836-1.901 12.072-3.231a30.871 30.871 0 005.445-2.746c3.827-2.554 7.66-7.053 6.926-12.018a25.968 25.968 0 00-1.344-4.716c-.18-.515-.367-1.037-.541-1.565a59.272 59.272 0 01-1.786-7.519 54.655 54.655 0 00-1.867-7.841C38.868 4.095 34.226.472 27.555.708a7.43 7.43 0 00-6.845 4.58.311.311 0 01-.18.161.293.293 0 01-.25 0 3.925 3.925 0 00-1.91-.478l-.006-.025z" fill="#231F20"/><path d="M47.412 49.883a63.649 63.649 0 00-.852-3.064c-.822-2.715-1.799-6.654-3.734-8.81-3.155-3.492-10.255-3.604-14.568-3.63-6.677-.036-13.503 1.53-18.961 5.363C.897 45.645-.66 54.214.305 63.77c1.108 10.687 2.49 21.35 3.989 31.994.15 1.093 1.948 17.354 2.757 17.36.056 0 55.383.044 53.616 1.349-2.489-8.63-4.356-17.398-6.36-26.097-.423-1.864-1.176-3.554-1.636-5.369-.666-2.622-.361-5.499-.623-8.183-.541-6.214-1.866-12.328-3.16-18.417-.455-2.187-.928-4.368-1.476-6.524z" fill="#E7816B"/><path fill="#231F20" d="M63.094 127.167L56.753 99.38l-51.215 4.213-.653 23.574z"/><path d="M63.094 127.478H4.885a.317.317 0 01-.224-.093.323.323 0 01-.087-.224l.622-23.574a.317.317 0 01.286-.305l51.215-4.213a.33.33 0 01.33.243l6.34 27.787a.317.317 0 01-.274.379h.001zm-57.873-.621h57.493l-6.222-27.141-50.667 4.163-.604 22.978zM32.714 57.786c.17.07.351.112.535.125 1.164.087 2.078-.994 2.558-2.057 1.07-2.367 1.07-5.064.883-7.649a11.977 11.977 0 00-.964-4.436 10.043 10.043 0 00-2.265-2.877c-1.662-1.535-3.678-2.821-5.925-3.107-2.246-.286-5.532.932-6.223 3.392-.721 2.66 2.079 5.338 3.436 7.295a79.087 79.087 0 006.41 8.078c.416.525.949.948 1.555 1.236z" fill="#231F20"/><path d="M33.386 58.221h-.162a2.492 2.492 0 01-.622-.143 4.722 4.722 0 01-1.662-1.31 80.94 80.94 0 01-6.434-8.078 28.075 28.075 0 00-.934-1.243c-1.406-1.796-3.16-4.039-2.539-6.313.691-2.548 3.94-3.933 6.54-3.623 2.036.237 4.09 1.305 6.1 3.17.955.834 1.747 1.839 2.333 2.963.617 1.442.955 2.987.995 4.555.18 2.485.212 5.312-.914 7.792-.243.553-1.14 2.23-2.701 2.23zm-.56-.733c.143.059.294.094.448.106.977.087 1.817-.92 2.246-1.864 1.064-2.355 1.033-5.108.86-7.494a11.933 11.933 0 00-.934-4.35 9.552 9.552 0 00-2.197-2.783c-1.91-1.771-3.846-2.784-5.75-3.007-2.296-.268-5.27.963-5.868 3.168-.535 1.976 1.108 4.083 2.433 5.767.348.447.678.87.958 1.242a78.832 78.832 0 006.385 8.035c.375.498.86.902 1.419 1.18z" fill="#231F20"/><path fill="#FFF" d="M59.584 8.27h87.482v93.254H59.584z"/><path d="M147.06 101.828H59.584a.31.31 0 01-.31-.31V8.27c0-.171.139-.31.31-.31h87.476a.31.31 0 01.311.31v93.248a.31.31 0 01-.311.31zm-87.164-.621h86.853V8.581H59.896v92.626z" fill="#231F20"/><path fill="#FFF" d="M65.229 15.441h76.181v68.455H65.229z"/><path d="M141.416 84.207H65.229a.31.31 0 01-.312-.311V15.44c0-.172.14-.31.312-.31h76.187c.171 0 .311.138.311.31v68.442a.312.312 0 01-.311.324zm-75.876-.622h75.564V15.751H65.54v67.834z" fill="#D1D3D4"/><path d="M132.89 39.35c-1.095 1.206-2.14 2.486-3.285 3.61-2.994 3.045-6.03 6.047-9.049 9.066-.105.106-.186.249-.31.305-.542.236-1.245.758-1.606.578a2.118 2.118 0 01-.822-1.585c-.087-2.33-.03-4.66-.03-7.152-.984 0-1.911-.037-2.838 0-3.504.168-6.877.864-9.926 2.685a12.158 12.158 0 00-6.266 10.308c.032 1.159.218 2.308.553 3.418.131.584.46 1.242-.273 1.472a1.606 1.606 0 01-1.363-.745 31.86 31.86 0 01-2.265-5.872c-2.097-9.47 3.111-18.15 12.526-21.127a27.68 27.68 0 018.395-1.31h1.45v-5.288c-.019-.832.038-1.664.168-2.486.187-.944.784-1.168 1.624-.702.34.213.65.47.921.764 3.796 3.79 7.588 7.587 11.376 11.39.372.435.711.899 1.014 1.385l.006 1.287z" fill="#E7816B"/><path d="M85.515 73.507a9.923 9.923 0 01-5.52-3.107 8.778 8.778 0 01-2.146-5.779c0-8.245-.05-16.484 0-24.73a8.773 8.773 0 012.577-6.254 8.8 8.8 0 016.265-2.569 94.813 94.813 0 014.605 0c1.245 0 2.029.74 2.017 1.82-.013 1.082-.778 1.697-1.992 1.71h-4.493a5.294 5.294 0 00-3.874 1.51 5.278 5.278 0 00-1.583 3.84c-.025 8.284-.025 16.569 0 24.854 0 1.405.563 2.751 1.564 3.739a5.269 5.269 0 003.763 1.517h30.492a5.269 5.269 0 003.93-1.509 5.253 5.253 0 001.565-3.903c.043-2.59 0-5.182 0-7.773 0-1.243.535-1.901 1.55-2.038.845-.118 1.866.466 1.866 1.311 0 3.461.255 6.96-.162 10.37-.46 3.729-3.36 6.214-7.1 6.916-.14.04-.275.092-.405.156l-32.919-.081z" fill="#E7816B"/><path d="M140.85 90.8H76.335a.31.31 0 110-.622h64.513a.31.31 0 110 .621zM124.813 95.64H76.336a.31.31 0 110-.622h48.477a.31.31 0 01.311.31.317.317 0 01-.311.312z" fill="#D1D3D4"/><ellipse fill="#FFF" cx="68.819" cy="91.744" rx="3.584" ry="3.579"/><path d="M68.82 95.64a3.902 3.902 0 01-3.61-2.401 3.892 3.892 0 01.842-4.248 3.906 3.906 0 014.253-.847 3.896 3.896 0 01-1.486 7.496zm0-7.165a3.28 3.28 0 00-3.036 2.019 3.271 3.271 0 00.71 3.571 3.283 3.283 0 003.577.709 3.275 3.275 0 00-1.252-6.299z" fill="#D1D3D4"/><path d="M39.204 14.217s3.112 7.239 2.21 12.949A8.274 8.274 0 0135.476 34l.622 9.973s.38 5.095-5.93 4.716a10.78 10.78 0 01-8.812-5.636L19.484 24.78s6.845-4.536 5.781-11.079c0 0 8.693 3.523 13.94.516z" fill="#FFF"/><path d="M30.853 49.031h-.672a11.202 11.202 0 01-9.073-5.81.298.298 0 01-.031-.105l-1.904-18.305a.317.317 0 01.137-.292c.068-.044 6.646-4.505 5.65-10.768a.304.304 0 01.112-.292.312.312 0 01.311-.044c.081 0 8.613 3.43 13.653.528a.33.33 0 01.255 0 .305.305 0 01.187.174c.13.299 3.174 7.388 2.24 13.123a8.659 8.659 0 01-5.911 7.028l.622 9.724a4.967 4.967 0 01-1.32 3.58c-.97.962-2.401 1.46-4.256 1.46zm-9.16-6.052a10.543 10.543 0 008.525 5.412c1.998.119 3.498-.31 4.45-1.28a4.39 4.39 0 001.151-3.106l-.622-9.942a.31.31 0 01.242-.323 7.926 7.926 0 005.7-6.599c.791-4.89-1.493-11.017-2.072-12.464-4.642 2.404-11.5.217-13.397-.479.578 5.828-4.83 10.035-5.825 10.756l1.848 18.025z" fill="#231F20"/><path d="M22.857 23.264s-3.566-6.723-6.727-2.138c-3.161 4.586 2.19 9.047 5.246 8.432" fill="#FFF"/><path d="M20.766 29.937c-1.749 0-3.84-1.243-4.978-3.001a5.064 5.064 0 01.118-5.978c.84-1.242 1.798-1.801 2.85-1.733 2.408.143 4.356 3.728 4.406 3.896a.31.31 0 01-.548.286s-1.867-3.437-3.945-3.56c-.83-.05-1.595.438-2.297 1.466a4.48 4.48 0 00-.112 5.281c1.177 1.79 3.442 2.989 5.041 2.666.17-.03.333.08.367.248a.304.304 0 01-.243.36 3.421 3.421 0 01-.66.07zM36.59 27.122a8.158 8.158 0 01-1.511-.143.299.299 0 01-.243-.36.31.31 0 01.367-.249s2.016.392 2.968-.186c.137-.777-1.78-3.38-3.173-4.97a.304.304 0 01.03-.436.318.318 0 01.443 0c.622.684 3.54 4.176 3.335 5.456a.683.683 0 01-.317.484 3.8 3.8 0 01-1.898.404zM35.47 34.013s-5.289 1.02-8.4.441c0 0 3.852 7.63 8.923 7.258l-.522-7.699z" fill="#231F20"/><path d="M35.632 42.041c-5.015 0-8.712-7.14-8.836-7.456a.304.304 0 010-.33.311.311 0 01.336-.08c3.018.565 8.233-.423 8.289-.435a.33.33 0 01.249.062c.068.055.11.136.118.224l.523 7.698a.31.31 0 01-.287.33 6.098 6.098 0 00-.392-.013zm-7.984-7.189c.977 1.66 4.089 6.568 7.99 6.568l-.479-7.034c-1.113.199-4.816.783-7.51.466z" fill="#231F20"/><ellipse fill="#231F20" transform="rotate(-6.85 31.984 20.03)" cx="31.984" cy="20.029" rx="1" ry="1.373"/><ellipse fill="#231F20" transform="rotate(-6.85 38.807 19.784)" cx="38.807" cy="19.784" rx="1" ry="1.373"/><path d="M33.442 30.111c-.453-.003-.9-.1-1.313-.286-1.519-.658-2.49-2.485-2.894-5.474a.314.314 0 01.623-.087c.373 2.74 1.244 4.418 2.526 4.971 1.574.696 3.348-.516 3.367-.528a.312.312 0 11.354.51 5.17 5.17 0 01-2.663.894z" fill="#231F20"/><path d="M117.047 101.84c-.103-.687-.17-1.38-.2-2.075a11.486 11.486 0 01.666-4.243c.15-.606.482-1.15.953-1.56a1.246 1.246 0 011.667.118 1.98 1.98 0 01.063 1.59 12.9 12.9 0 00-.218 4.4c.236-1.976.498-4.027 1.574-5.692.224-.39.543-.717.927-.95a1.246 1.246 0 011.276 0c.554.403.51 1.242.442 1.9a22.59 22.59 0 00.08 5.227 14.89 14.89 0 01.33-4.549c.225-.975.666-2.05 1.619-2.361.2-.07.415-.083.622-.037.435.147.753.522.827.975.072.445.072.898 0 1.342-.18 1.75-.125 3.516.162 5.25a12.57 12.57 0 01.168-4.572 3.57 3.57 0 01.697-1.653 1.464 1.464 0 011.63-.479c.422.224.714.63.79 1.1.074.465.09.936.05 1.405a12.702 12.702 0 00.965 5.17c.56 1.36 1.288 2.87 1.158 4.392a4.42 4.42 0 01-2.875 3.523 8.388 8.388 0 01-4.717.224c-5.147-1.019-9.397-3.467-11.201-8.382" fill="#FFF"/><path d="M127.88 110.857a11.436 11.436 0 01-2.22-.23c-5.925-1.175-9.777-4.064-11.457-8.587a.33.33 0 11.622-.224c1.593 4.3 5.29 7.052 10.977 8.177 1.5.37 3.076.3 4.537-.205a4.102 4.102 0 002.67-3.25c.111-1.286-.43-2.572-.953-3.809l-.18-.44a13.155 13.155 0 01-.99-5.301v-.218c.033-.369.019-.74-.043-1.106a1.243 1.243 0 00-.622-.876 1.17 1.17 0 00-1.245.392 3.29 3.29 0 00-.622 1.516 12.062 12.062 0 00-.168 4.455.323.323 0 01-.268.367.317.317 0 01-.348-.236 19.922 19.922 0 01-.162-5.338v-.106c.06-.376.06-.76 0-1.137a.932.932 0 00-.622-.733.879.879 0 00-.467.031c-.654.211-1.126.932-1.407 2.125a14.457 14.457 0 00-.317 4.45.323.323 0 01-.622.068 22.875 22.875 0 01-.081-5.3c.062-.622.093-1.305-.311-1.604a.916.916 0 00-.934 0 2.32 2.32 0 00-.815.833c-1.058 1.64-1.3 3.728-1.518 5.592a.323.323 0 01-.318.28.323.323 0 01-.317-.28 13.203 13.203 0 01.218-4.505c.18-.425.18-.904 0-1.33a.622.622 0 00-.43-.248 1.072 1.072 0 00-.784.193c-.417.371-.71.861-.84 1.404a10.933 10.933 0 00-.653 4.12c0 .217.031.41.043.59.022.49.074.977.156 1.46a.323.323 0 01-.622.106 12.484 12.484 0 01-.162-1.523c0-.18 0-.373-.044-.584-.052-1.48.18-2.956.685-4.35.168-.669.54-1.27 1.064-1.72.36-.258.805-.37 1.245-.311.34.047.646.229.852.503a2.24 2.24 0 01.118 1.864.583.583 0 000 .1c.202-.571.467-1.117.79-1.628a2.979 2.979 0 011.052-1.057 1.527 1.527 0 011.612.044c.622.472.622 1.342.622 1.945a2.68 2.68 0 011.587-1.771c.264-.094.55-.109.822-.044.563.179.977.66 1.07 1.243.057.284.074.575.05.864.108-.225.246-.434.41-.622a1.763 1.763 0 012.004-.559c.511.268.87.756.971 1.324a5.1 5.1 0 01.068 1.242v.218a12.653 12.653 0 00.94 5.04l.18.434c.53 1.243 1.127 2.666 1.002 4.113a4.693 4.693 0 01-3.074 3.79 7.154 7.154 0 01-2.75.349z" fill="#231F20"/><path d="M182.15 67.144l-.945 14.254s-29.248-22.99-34.145-23.978v4.02s-8.134-.994-8.78.621c-.648 1.616.454 7.755 2.57 8.998 1.244.751 11.754.814 11.754.814s1.488 3.64 15.987 16.981c14.5 13.341 28.14 20.474 28.993 7.979.852-12.496 1.935-33.554 1.935-33.554" fill="#FFF"/><path d="M192.22 103.612c-5.147 0-13.622-5.133-23.847-14.54-12.75-11.738-15.47-15.982-15.968-16.895-1.736 0-10.473-.124-11.717-.857-2.328-1.374-3.404-7.662-2.707-9.395.697-1.734 6.795-1.094 8.761-.876v-3.66a.33.33 0 01.119-.249.343.343 0 01.267-.068c4.624.932 29.87 20.58 33.797 23.667l.902-13.632a.323.323 0 11.623.043l-.921 14.248a.305.305 0 01-.193.267.318.318 0 01-.33-.037c-.28-.224-27.866-21.878-33.604-23.81v3.597a.323.323 0 01-.36.323c-3.274-.404-8.09-.534-8.445.429-.592 1.473.485 7.456 2.433 8.606.877.516 7.411.74 11.593.77a.317.317 0 01.299.2c0 .03 1.724 3.808 15.906 16.863 11.636 10.693 20.846 15.782 25.327 14.036 1.867-.74 2.906-2.709 3.111-5.847.84-12.346 1.923-33.348 1.936-33.553a.317.317 0 01.336-.305.318.318 0 01.305.336c0 .211-1.096 21.22-1.936 33.553-.236 3.405-1.419 5.593-3.528 6.394-.688.268-1.421.4-2.16.392z" fill="#231F20"/><path fill="#FFF" d="M181.205 81.367l7.013 5.219"/><path d="M188.218 86.91a.392.392 0 01-.193-.063l-7.013-5.219a.329.329 0 01-.062-.454.324.324 0 01.448-.062l7.013 5.22a.323.323 0 01-.193.578z" fill="#231F20"/><path d="M19.005 55.637S31.003 77.88 31.326 78.75c.112.292 24.724-12.868 25.626-14.664a12.577 12.577 0 01.579-5.996c.398-1.05 1.132-1.18 2.004-1.92a29.78 29.78 0 00-.075 3.946 46.212 46.212 0 015.34-4.822 1.725 1.725 0 011.567-.51c.258.13.474.33.623.578 2.551 3.585.423 7.891-1.407 11.247-3.447 6.313-8.612 10.233-14.1 14.645a136.24 136.24 0 01-11.395 8.171 56.886 56.886 0 01-9.677 5.25c-2.028.808-4.829 1.865-6.982.858-7.81-3.616-16.764-22.096-19.21-30.23" fill="#FFF"/><path d="M25.464 96.255a5.047 5.047 0 01-2.14-.441c-4.425-2.045-8.837-8.494-11.756-13.546a89.13 89.13 0 01-7.616-16.87.31.31 0 01.59-.18c2.49 8.363 11.513 26.55 19.043 30.036 1.954.901 4.505 0 6.74-.863a56.88 56.88 0 009.614-5.226 136.19 136.19 0 0011.375-8.152l.946-.764c5.072-4.058 9.857-7.892 13.068-13.788 1.935-3.542 3.796-7.593 1.425-10.918-.12-.2-.294-.362-.504-.466-.392-.155-.884.168-1.244.46a47.27 47.27 0 00-5.302 4.79.311.311 0 01-.536-.186c-.05-.571-.043-2.237 0-3.305l-.217.149a2.362 2.362 0 00-1.12 1.243 12.41 12.41 0 00-.567 5.828.298.298 0 010 .193c-.523 1.043-7.386 5.008-13.068 8.146-3.236 1.795-12.265 6.698-12.856 6.698a.336.336 0 01-.287-.205c-.249-.671-8.158-15.391-12.302-23.078a.311.311 0 11.547-.298c.467.87 10.934 20.288 12.216 22.891C34.226 77.322 55.297 65.753 56.628 64a12.757 12.757 0 01.623-6.033c.259-.65.74-1.187 1.356-1.517.258-.163.505-.341.74-.534.1-.085.241-.1.356-.037.111.064.172.19.155.317a28.434 28.434 0 00-.106 3.156 47.227 47.227 0 014.867-4.35c.51-.39 1.188-.813 1.867-.552.324.15.598.389.79.69 2.788 3.914.174 8.698-1.388 11.575-3.273 6.003-8.09 9.874-13.23 13.975l-.952.764a134.821 134.821 0 01-11.419 8.19 57.464 57.464 0 01-9.726 5.281c-1.604.75-3.331 1.2-5.097 1.33z" fill="#231F20"/><path d="M19.005 55.922a.311.311 0 01-.268-.155l-6.024-10.259a.313.313 0 11.542-.317l6.036 10.29a.304.304 0 01-.112.423.28.28 0 01-.174.018zM182.15 67.467a.318.318 0 01-.285-.348l1.325-14.422c.02-.173.174-.3.349-.285a.311.311 0 01.292.348l-1.332 14.415a.317.317 0 01-.348.292z" fill="#231F20"/></g></g></svg>