<svg width="202" height="202" xmlns="http://www.w3.org/2000/svg"><g fill="none" fill-rule="evenodd"><circle opacity=".203" transform="matrix(-1 0 0 1 202 0)" cx="101" cy="101" r="101"/><g transform="translate(7 20)" fill-rule="nonzero"><path d="M157.845 118.136s22.594-58.965 10.888-67.957c-11.705-8.993-60.798-5.361-63.487-2.149-2.69 3.213-18.526 74.19-18.526 74.19l71.125-4.084z" fill="#231F20"/><path d="M86.686 122.578a.357.357 0 01-.26-.117.33.33 0 01-.07-.295c.645-2.904 15.912-71.102 18.629-74.342 1.489-1.778 14.594-3.432 28.619-3.617 8.233-.11 28.193.226 35.342 5.711 4.975 3.817 4.659 16.475-.933 37.7-4.117 15.698-9.791 30.491-9.846 30.635a.336.336 0 01-.302.22l-71.159 4.118-.02-.013zm49.511-77.705h-2.58c-14.409.192-26.93 1.97-28.131 3.377-2.059 2.478-12.872 48.964-18.388 73.607l70.486-4.064c1.448-3.837 21.956-58.883 10.923-67.346-4.645-3.563-16.357-5.574-32.31-5.574z" fill="#231F20"/><path d="M66.102 67.189L55.92 101.38s21.002 2.712 21.002 1.936c0-.775 4.117-37.624 4.117-37.624L66.102 67.19z" fill="#FFF"/><path d="M75.866 103.762c-3.548 0-13.613-1.221-19.987-2.059a.35.35 0 01-.289-.44l10.183-34.19a.343.343 0 01.295-.248l14.944-1.496a.336.336 0 01.274.103c.075.07.11.172.096.274-1.42 12.7-4.117 36.896-4.117 37.59a.44.44 0 01-.137.295 2.833 2.833 0 01-1.262.171zm-19.528-2.67c7.3.934 18.636 2.231 20.227 2.005.261-2.966 3.603-32.895 4.062-37.02L66.342 67.51l-10.004 33.581z" fill="#231F20"/><path d="M46.801 58.698c.09.096 3.705-.872 5.571 1.372 1.867 2.245-.555 4.25-6.45 3.09-5.893-1.16.879-4.462.879-4.462z" fill="#FFF"/><path d="M49.03 63.839a16.755 16.755 0 01-3.176-.336c-1.701-.337-2.58-.886-2.683-1.689-.199-1.551 2.862-3.123 3.48-3.432a.343.343 0 01.219 0h.226c.96-.117 3.884-.488 5.544 1.503.741.879.899 1.778.46 2.533-.57.9-2.045 1.421-4.07 1.421zm-2.154-4.805c-1.337.686-3.1 1.894-3.005 2.656 0 .254.357.735 2.12 1.085 3.987.783 5.99.055 6.498-.803a1.518 1.518 0 00-.391-1.716c-1.413-1.689-3.959-1.373-4.913-1.25-.13.028-.226.028-.309.028z" fill="#231F20"/><path d="M37.737 51.524s-.74-.85-.274-1.448a1.008 1.008 0 011.633.15s-1.167.42-1.359 1.298z" fill="#FFF"/><path d="M37.737 51.874a.357.357 0 01-.267-.116c-.343-.399-.796-1.25-.282-1.895.234-.307.596-.487.981-.487.475.008.917.24 1.194.624.077.09.103.21.069.323a.35.35 0 01-.22.24c-.274.096-1.008.48-1.132 1.037a.35.35 0 01-.254.267l-.089.007zm.446-1.791a.563.563 0 00-.432.213.529.529 0 000 .487c.207-.254.458-.468.741-.632a.556.556 0 00-.302-.04l-.007-.028z" fill="#231F20"/><path d="M39.356 50.193a1.853 1.853 0 00-1.674 1.523L52.4 70.875a4.118 4.118 0 013.52-3.672l-16.564-17.01z" fill="#FFF"/><path d="M52.393 71.225a.35.35 0 01-.274-.137L37.4 51.929a.357.357 0 01-.062-.309 2.237 2.237 0 012.017-1.784c.096 0 .188.04.254.11l16.564 17.01a.343.343 0 01.082.356.35.35 0 01-.275.24 3.76 3.76 0 00-3.231 3.35.35.35 0 01-.254.31l-.103.013zm-14.32-19.577L52.215 70.05a4.392 4.392 0 013.012-3.054l-16-16.434a1.51 1.51 0 00-1.154 1.085z" fill="#231F20"/><path d="M52.4 70.875l5.022 2.608.625-.583-2.127-5.697s-3.911-.392-3.52 3.672z" fill="#FFF"/><path d="M57.422 73.834a.33.33 0 01-.164-.042l-5.023-2.608a.35.35 0 01-.192-.282 3.653 3.653 0 01.885-3.075 4.116 4.116 0 013.026-.981.357.357 0 01.302.233l2.12 5.697a.35.35 0 01-.09.385l-.624.583a.364.364 0 01-.24.09zm-4.686-3.186l4.625 2.403.274-.247-1.962-5.258a3.354 3.354 0 00-2.25.782 2.884 2.884 0 00-.687 2.32z" fill="#231F20"/><path fill="#FFF" d="M57.422 73.483l.96 1.03.454-.515-.79-1.098z"/><path d="M58.383 74.87a.33.33 0 01-.254-.117l-.967-1.03a.378.378 0 01-.096-.253.364.364 0 01.116-.247l.625-.584a.357.357 0 01.528.055l.789 1.098a.35.35 0 010 .44l-.453.515a.336.336 0 01-.26.123h-.028zm-.46-1.373l.453.488-.391-.543-.062.055z" fill="#231F20"/><path d="M47.734 72.378c.81-1.64 2.84-5.12 3.307-6.63 1.29-4.12-6.264-7.977-8.707-7.977-2.442 0-7.547 8.54-7.547 13.104 0 4.565 16.913 39.518 16.913 39.518l16.227-7.427-20.193-30.588z" fill="#FFF"/><path d="M51.72 110.75a.35.35 0 01-.315-.199c-.686-1.428-16.954-35.09-16.954-39.676 0-4.585 5.16-13.461 7.883-13.461 1.88 0 6.251 2.004 8.234 4.668a4.12 4.12 0 01.844 3.775 37.72 37.72 0 01-2.292 4.702c-.364.687-.686 1.304-.947 1.792l20.097 30.41a.37.37 0 01.048.294.357.357 0 01-.192.22l-16.234 7.441a.26.26 0 01-.171.034zm-9.386-52.63c-2.147 0-7.17 8.238-7.17 12.755 0 4.201 15.047 35.564 16.721 39.058l15.541-7.125L47.44 72.605a.37.37 0 010-.357c.26-.522.638-1.229 1.05-1.998a37.494 37.494 0 002.237-4.578 3.433 3.433 0 00-.734-3.144c-1.915-2.602-6.08-4.407-7.658-4.407z" fill="#231F20"/><path d="M134.07 79.298l20-5.1c-.685-.969-8.754-26.593-17.262-30.787-7.445-4.943-25.099-8.238-40.695-7.119 0 0-4.117-.15-11.335 2.712C67.2 45.992 63.81 70.326 63.81 70.326l13.723 4.743s-2.621 31.473-5.098 47.927c0 0 30.34 5.938 74.514-1.372.034-.014-12.797-37.672-12.879-42.326z" fill="#E7816B"/><path d="M132.423 44.118c-2.648 2.745-4.713 6.04-7.636 8.628-6.299 5.574-14.54 9.988-23.178 9.452-10.182-.631-18.985-7.592-21.194-17.73-1.373-6.357.054-12.26 4.967-16.75 3.397-3.102 7.747-4.997 12.193-6.177 11.808-3.165 25.057-1.483 35.137 5.45a12.545 12.545 0 014.061 4.036c2.519 4.565-.377 9.26-3.643 12.397-.22.213-.453.453-.707.694z" fill="#E7816B"/><path d="M97.685 51.311c-.103 0-1.997 2.307-2.093 2.341 1.077 4.064 2.216 9.356 6.813 9.878 9.325 1.064 10.738-11.374 12.495-17.243-6.457 1.812-11.013 2.54-17.215 5.024z" fill="#231F20"/><path d="M103.496 63.942a10.637 10.637 0 01-1.125-.069c-4.59-.521-5.887-5.491-6.937-9.466l-.178-.686a.343.343 0 01.137-.364c.11-.103.61-.686.974-1.112 1.064-1.222 1.077-1.229 1.187-1.277a85.333 85.333 0 0111.664-3.576c1.75-.44 3.555-.893 5.558-1.455.12-.034.249 0 .336.089.084.09.115.217.083.336-.261.872-.515 1.902-.79 2.993-1.42 5.876-3.595 14.58-10.909 14.587zm-7.547-10.18l.123.474c1.05 3.981 2.23 8.49 6.354 8.923 7.636.872 9.77-7.715 11.335-13.99.212-.857.418-1.681.624-2.422-1.777.487-3.43.899-4.988 1.297a82.768 82.768 0 00-11.555 3.528c-.137.138-.617.687-.974 1.105-.48.618-.748.92-.899 1.085h-.02z" fill="#231F20"/><path d="M106.714 3.432c-1.372-.055-2.25.542-3.43.968-2.3.81-3.37-1.112-5.346-2.135a15.18 15.18 0 00-18.827 3.947 11.35 11.35 0 00-2.56 5.698c-.287 2.375.378 4.805-.034 7.152a8.079 8.079 0 01-4.995 6.041c2.197.17 4.406-.04 6.532-.618a6.647 6.647 0 01-4.967 2.369 12.347 12.347 0 007.636 2.56l-4.837 1.133c4.117 2.642 9.133 3.432 13.983 3.212 9.661-.5 25.84-4.455 25.559-16.976-.158-4.798-2.793-13.076-8.714-13.35z" fill="#FFF"/><path d="M88.21 34.164c-3.7 0-8.434-.686-12.537-3.308a.35.35 0 01-.15-.35.364.364 0 01.26-.275l2.69-.625a12.76 12.76 0 01-5.626-2.457.343.343 0 01.205-.618 6.29 6.29 0 003.863-1.407c-1.79.371-3.625.487-5.448.343a.343.343 0 01-.308-.295.336.336 0 01.22-.37 7.701 7.701 0 004.802-5.774 15.3 15.3 0 00.041-3.72 18.35 18.35 0 010-3.433A11.713 11.713 0 0178.857 6 15.516 15.516 0 0198.11 1.97c.584.32 1.14.69 1.66 1.105 1.112.845 1.99 1.51 3.431 1.01.309-.11.597-.234.878-.35a5.885 5.885 0 012.704-.64c5.942.262 8.92 8.32 9.015 13.688.124 5.691-2.984 10.174-9.242 13.31-6.257 3.138-13.722 3.865-16.638 4.016-.577.041-1.133.055-1.709.055zm-11.46-3.432c4.433 2.574 9.517 2.917 13.078 2.746 2.855-.151 10.155-.83 16.365-3.947 6.003-3.007 8.981-7.27 8.864-12.679-.116-5.107-2.854-12.775-8.357-13.042a5.418 5.418 0 00-2.408.583c-.295.124-.597.254-.92.364-1.777.625-2.888-.22-4.061-1.112a10.587 10.587 0 00-1.558-1.037A14.816 14.816 0 0079.351 6.46a11.033 11.033 0 00-2.49 5.492 17.553 17.553 0 000 3.288c.139 1.292.12 2.597-.055 3.885a8.395 8.395 0 01-3.96 5.69 19.204 19.204 0 005.064-.686.343.343 0 01.384.145.35.35 0 010 .405 7.018 7.018 0 01-4.267 2.416 12.003 12.003 0 006.676 1.95.336.336 0 01.343.301.343.343 0 01-.26.378l-4.035 1.009z" fill="#231F20"/><path d="M94.906 41.832l.686 11.82s5.4 6.178 12.35 2.382c6.95-3.796 6.683-9.816 6.683-9.816l-4.563-22.193s-6.305-1.455-7.91-13.88a38.113 38.113 0 01-18.609 7.902s.124 13.9 2.573 19.426c2.45 5.526 8.79 4.359 8.79 4.359z" fill="#FFF"/><path d="M103.38 57.606c-4.721 0-8.008-3.672-8.049-3.727a.323.323 0 01-.082-.206l-.686-11.457c-1.448.144-6.608.282-8.783-4.627-2.45-5.491-2.593-18.993-2.6-19.563a.35.35 0 01.295-.343 38.167 38.167 0 0018.43-7.812.343.343 0 01.35-.062.35.35 0 01.219.275c.81 6.288 2.854 9.644 4.425 11.36a7.204 7.204 0 003.225 2.224.35.35 0 01.254.268l4.57 22.213c0 .117.205 6.33-6.862 10.187a9.74 9.74 0 01-4.707 1.27zm-7.459-4.119c.686.749 5.599 5.65 11.863 2.225 6.67-3.652 6.505-9.453 6.505-9.508l-4.522-21.966c-1.139-.377-6.298-2.656-7.87-13.502a39.45 39.45 0 01-18.004 7.55c0 2.06.343 14.045 2.532 18.995 2.312 5.203 8.172 4.221 8.419 4.18a.35.35 0 01.274.062.37.37 0 01.13.254l.673 11.71z" fill="#231F20"/><path d="M107.49 30.245a6.173 6.173 0 004.569-1.126 6.612 6.612 0 002.456-5.986 5.493 5.493 0 00-.686-2.396 2.916 2.916 0 00-1.942-1.455 4.692 4.692 0 00-2.868.762c-1.33.687-1.372 1.448-2.1 2.574.083-.103.145-.391.227-.494" fill="#FFF"/><path d="M108.409 30.663a6.657 6.657 0 01-.975-.075.35.35 0 01-.288-.398.336.336 0 01.391-.282 5.81 5.81 0 004.302-1.077 6.262 6.262 0 002.313-5.684 5.116 5.116 0 00-.611-2.252 2.587 2.587 0 00-1.702-1.277c-.85-.15-1.701.24-2.648.728-.65.317-1.16.865-1.427 1.538-.144.26-.302.556-.515.878a.302.302 0 01-.055.076.336.336 0 01-.466.055.336.336 0 01-.083-.467s0-.09.048-.137c.04-.125.098-.242.172-.35a.357.357 0 01.13-.096l.13-.248a3.61 3.61 0 011.73-1.826c.81-.418 1.928-.995 3.074-.796.942.187 1.755.78 2.223 1.62.42.785.655 1.657.686 2.547a6.914 6.914 0 01-2.594 6.28 6.482 6.482 0 01-3.835 1.243zM95.262 48.05a8.316 8.316 0 006.594-4.118c2.422-4.043 1.455-6.63 1.455-6.63s-3.266 4.166-8.405 4.502l.356 6.247z" fill="#231F20"/><path d="M95.262 48.387a.336.336 0 01-.336-.322l-.363-6.178a.343.343 0 01.322-.364c4.92-.316 8.124-4.325 8.158-4.366a.343.343 0 01.323-.13.35.35 0 01.267.22c.041.11.995 2.786-1.489 6.925a8.57 8.57 0 01-6.86 4.25l-.022-.035zm0-6.246l.323 5.54a8.082 8.082 0 005.962-3.9c1.64-2.746 1.681-4.75 1.558-5.711a12.911 12.911 0 01-7.843 4.07z" fill="#231F20"/><path d="M94 23.044s-2.573 6.782-1.407 7.592c1.167.81 3.63-.48 3.63-.48" fill="#FFF"/><path d="M93.609 31.247c-.43.02-.854-.096-1.215-.33-1.29-.892.687-6.342 1.277-7.997a.343.343 0 01.631-.017c.038.084.04.179.007.264-1.194 3.151-2.059 6.796-1.523 7.18.816.563 2.641-.164 3.272-.494a.35.35 0 01.467.144.343.343 0 01-.151.46 6.777 6.777 0 01-2.765.79z" fill="#231F20"/><ellipse fill="#231F20" transform="rotate(-17.91 98.628 21.533)" cx="98.628" cy="21.533" rx="1" ry="1.407"/><ellipse fill="#231F20" transform="rotate(-.78 89.443 23.71)" cx="89.443" cy="23.711" rx="1" ry="1.407"/><path d="M94.816 39.347a3.155 3.155 0 01-1.852-.543c-2.161-1.578-2.32-5.065-2.326-5.216a.35.35 0 01.274-.35c8.879-1.943 8.975-1.875 9.133-1.758a.37.37 0 01.144.247 8.859 8.859 0 01-.556 4.078 5.614 5.614 0 01-3.575 3.363 4.533 4.533 0 01-1.242.179zm-3.464-5.492c.082.83.452 3.26 2.003 4.387.748.459 1.661.56 2.49.274a4.962 4.962 0 003.157-2.958 7.945 7.945 0 00.521-3.433c-1.18.213-5.345 1.106-8.171 1.723v.007z" fill="#231F20"/><path d="M99.318 35.695C98 38.88 94.7 39.642 93.142 38.537c.35-1.215.988-2.478 2.175-2.938a5.789 5.789 0 014 .096z" fill="#231F20"/><path d="M94.816 39.34a3.169 3.169 0 01-1.852-.536.336.336 0 01-.124-.37c.467-1.675 1.27-2.746 2.374-3.165a6.173 6.173 0 014.22.09c.089.032.16.099.2.185a.364.364 0 010 .268 5.627 5.627 0 01-3.576 3.356 4.554 4.554 0 01-1.242.172zm-1.248-.968c.713.337 1.529.386 2.278.137a4.886 4.886 0 003.005-2.622 5.37 5.37 0 00-3.39 0c-.843.343-1.461 1.18-1.893 2.485zM83.22 28.522a2.059 2.059 0 01-2.01-1.62l-.72-3.275a2.06 2.06 0 011.571-2.45l7.65-1.682a2.058 2.058 0 012.457 1.572l.686 3.274a2.06 2.06 0 01-1.544 2.43l-7.65 1.675c-.143.042-.29.068-.44.076zm6.938-8.361a1.433 1.433 0 00-.295 0l-7.644 1.675a1.373 1.373 0 00-1.036 1.613l.72 3.322c.17.72.881 1.176 1.606 1.03l7.65-1.716c.72-.17 1.175-.881 1.03-1.607l-.687-3.274a1.372 1.372 0 00-1.317-1.064l-.027.02zM96.854 25.536a2.058 2.058 0 01-1.111-.33 2.06 2.06 0 01-.9-1.29l-.685-3.275a2.06 2.06 0 011.571-2.457l7.644-1.675a2.058 2.058 0 012.456 1.572l.686 3.274a2.06 2.06 0 01-1.537 2.458l-7.643 1.675a2.53 2.53 0 01-.48.048zm6.937-8.375c-.1.001-.198.013-.295.034l-7.643 1.682a1.331 1.331 0 00-.851.59c-.194.304-.26.671-.186 1.023l.72 3.275c.171.72.881 1.175 1.606 1.03l7.65-1.676c.35-.078.656-.29.852-.59.19-.304.255-.672.178-1.023l-.686-3.274a1.372 1.372 0 00-1.345-1.071z" fill="#231F20"/><path d="M91.818 21.5a.357.357 0 01-.309-.529c.323-.556 1.373-1.428 3.095-.735a.367.367 0 01-.26.687c-1.538-.618-2.155.322-2.217.432a.364.364 0 01-.309.144z" fill="#231F20"/><path fill="#FFF" d="M23.466 112.878h141.068l22.636 41.358H.83z"/><path d="M187.17 154.58H.83a.35.35 0 01-.295-.165.357.357 0 010-.343l22.643-41.358a.336.336 0 01.301-.179h141.048a.336.336 0 01.302.179l22.643 41.358a.357.357 0 010 .343.35.35 0 01-.302.165zm-185.757-.687h185.174l-22.259-40.671H23.672L1.413 153.893z" fill="#D1D3D4"/><path d="M25.654 86.196l.302-1.304c.686-1.304 1.448-2.183 3.218-2.183h67.152a3.76 3.76 0 013.602 2.705l10.917 37.52a3.35 3.35 0 01-1.86 4.195l-1.187.281-82.144-41.214z" fill="#FFF"/><path d="M107.798 127.753a.405.405 0 01-.15-.034L25.503 86.492a.336.336 0 01-.179-.385l.302-1.304a.446.446 0 010-.09c.686-1.242 1.475-2.36 3.52-2.36h67.152a4.117 4.117 0 013.931 2.951l10.923 37.569a3.694 3.694 0 01-2.058 4.613l-1.228.295-.069-.028zM26.073 86.011l81.794 41.035 1.063-.247c1.654-.645 1.997-2.41 1.606-3.768L99.619 85.51a3.43 3.43 0 00-3.272-2.458H29.174c-1.516 0-2.168.687-2.895 1.964l-.206.995z" fill="#231F20"/><path d="M107.798 127.41H39.274a2.168 2.168 0 01-2.058-1.565L25.682 86.196a1.023 1.023 0 01.981-1.304H97.02l11.918 41.001a1.181 1.181 0 01-1.139 1.517z" fill="#231F20"/><path d="M107.798 127.753H39.274a2.532 2.532 0 01-2.415-1.812L25.325 86.292a1.373 1.373 0 011.31-1.736H97.02a.33.33 0 01.322.24l11.925 41.001a1.531 1.531 0 01-1.468 1.956zM26.636 85.235a.686.686 0 00-.652.865l11.527 39.65c.233.78.95 1.315 1.763 1.317h68.524a.858.858 0 00.686-.336.845.845 0 00.13-.742l-11.87-40.754H26.637z" fill="#231F20"/><path d="M96.305 110.517l-4.164 17.717a4.302 4.302 0 01-4.2 3.33H44.6a4.315 4.315 0 01-4.2-5.307l3.671-15.74h-3.588l-3.513 14.93a7.849 7.849 0 001.503 6.647 7.841 7.841 0 006.133 2.963h43.37a7.823 7.823 0 007.603-6.006l4.35-18.534h-3.623z" fill="#FFF"/><path d="M87.941 135.449H44.6a8.185 8.185 0 01-6.415-3.106 8.192 8.192 0 01-1.551-6.958l3.506-14.937a.343.343 0 01.336-.26h3.623a.336.336 0 01.33.419l-3.7 15.74a3.983 3.983 0 003.87 4.887h43.37a3.966 3.966 0 003.87-3.069l4.166-17.717a.336.336 0 01.329-.26h3.623a.35.35 0 01.336.418l-4.357 18.534a8.152 8.152 0 01-7.994 6.309zm-47.226-24.575l-3.43 14.67a7.499 7.499 0 001.423 6.382 7.491 7.491 0 005.89 2.836h43.37a7.473 7.473 0 007.301-5.787l4.254-18.101h-2.916l-4.116 17.45a4.632 4.632 0 01-4.536 3.596H44.6a4.658 4.658 0 01-4.536-5.732l3.596-15.314h-2.944z" fill="#231F20"/><path d="M152.198 74.39s6.134 27.251 1.111 34.212c-5.022 6.96-40.097 5.862-40.097 5.862s-5.688 6.83-10.628 6.377c-4.94-.453-2.059-9.802 3.753-13.694l-.803-3.247 30.924-4.963-4.117-19.584" fill="#FFF"/><path d="M103.036 121.205h-.514a2.896 2.896 0 01-2.69-2.3c-.775-3.04 1.709-8.841 6.08-11.889l-.742-3.013a.336.336 0 01.275-.42l30.567-4.907-4.048-19.22a.343.343 0 01.267-.405.336.336 0 01.405.26l4.117 19.585c.02.092 0 .19-.055.267a.336.336 0 01-.226.144l-30.554 4.908.686 2.883a.336.336 0 01-.137.364c-4.2 2.815-6.717 8.478-5.997 11.292a2.19 2.19 0 002.059 1.778c4.7.44 10.292-6.178 10.333-6.253a.343.343 0 01.274-.124c.35 0 34.993 1.01 39.837-5.725 4.844-6.734-1.098-33.635-1.16-33.93a.352.352 0 01.687-.152c.253 1.12 6.106 27.458 1.05 34.487-4.94 6.865-37.32 6.096-40.25 6.007-.774.906-5.667 6.363-10.264 6.363zM115.4 60.894a.316.316 0 01-.15-.041.343.343 0 01-.165-.467c4.981-10.296 17.77-17.223 17.901-17.291a.343.343 0 01.473.144.35.35 0 01-.144.48c-.123.07-12.714 6.865-17.592 16.976a.364.364 0 01-.323.2zM94.254 60.407a.37.37 0 01-.151 0c-11.952-5.492-13.4-17.56-13.414-17.676a.357.357 0 01.576-.319.35.35 0 01.13.237c0 .116 1.428 11.793 13.037 17.05a.357.357 0 01.179.468.364.364 0 01-.357.24zM39.796 75.968a.357.357 0 010-.686c5.173-.158 7.684-3.082 7.712-3.11a.35.35 0 01.494-.048c.15.126.172.35.048.501-.11.13-2.745 3.2-8.234 3.364l-.02-.02z" fill="#231F20"/><path d="M132.3 79.703a.35.35 0 01-.343-.268c0-.124-3.232-12.775-3.678-20.36a.35.35 0 01.33-.37.357.357 0 01.377.329c.446 7.516 3.63 20.099 3.657 20.23a.357.357 0 01-.254.432l-.09.007zM76.998 81.961a.35.35 0 01-.33-.378l1.702-26.668a.35.35 0 01.377-.33.343.343 0 01.33.371l-1.73 26.669a.35.35 0 01-.35.336zM137.748 67.045a.343.343 0 01-.309-.186l-3.32-6.178a.37.37 0 010-.281.377.377 0 01.184-.213l10.292-4.867a.35.35 0 01.474.165.357.357 0 01-.165.474l-9.976 4.709 3.005 5.574 10.107-3.09a.358.358 0 11.206.687l-10.395 3.213-.103-.007z" fill="#231F20"/><ellipse fill="#FFF" cx="146.661" cy="140.274" rx="16.941" ry="5.1"/><path d="M146.66 145.718c-9.688 0-17.283-2.39-17.283-5.444 0-3.055 7.595-5.443 17.284-5.443 9.688 0 17.283 2.388 17.283 5.443 0 3.055-7.595 5.444-17.283 5.444zm0-10.2c-9.928 0-16.597 2.457-16.597 4.756 0 2.3 6.67 4.757 16.598 4.757 9.928 0 16.597-2.457 16.597-4.757s-6.67-4.757-16.597-4.757z" fill="#D1D3D4"/><path d="M133.892 125.708l-.405.075a5.029 5.029 0 00-3.129 1.765 4.333 4.333 0 00-.103 4.578c1.798 3.24 6.175 4.119 9.551 4.455.478.078.967.04 1.427-.11.465-.159.781-.593.79-1.084a1.194 1.194 0 00-.687-.913 3.67 3.67 0 00-1.118-.316c-2.1-.343-4.31-.597-6.23-1.565-1.119-.57-2.683-1.867-1.867-3.268a2.67 2.67 0 011.18-1.002c1.929-.92 3.76-.22 5.661.343.138.051.286.072.432.062a.769.769 0 00.556-.858c-.062-.83-.892-1.373-1.674-1.682a8.779 8.779 0 00-4.384-.48z" fill="#FFF"/><path d="M140.376 136.959c-.2-.001-.4-.013-.597-.035-5.153-.487-8.364-1.997-9.826-4.633a4.663 4.663 0 01.13-4.95 5.386 5.386 0 013.335-1.894l.426-.075a9.067 9.067 0 014.583.5c.686.255 1.805.852 1.894 1.97a1.119 1.119 0 01-.851 1.23 1.488 1.488 0 01-.576-.076l-.494-.151c-1.688-.515-3.28-.995-4.92-.213-.425.18-.786.484-1.036.872-.18.286-.228.637-.13.96a3.685 3.685 0 001.852 1.82 18.224 18.224 0 005.359 1.414l.775.124c.426.046.841.165 1.228.35a1.373 1.373 0 01-.171 2.622c-.315.114-.647.17-.981.165zm-6.43-10.908l-.39.069a4.747 4.747 0 00-2.923 1.627 3.99 3.99 0 00-.076 4.214c1.338 2.417 4.378 3.817 9.283 4.277.422.07.854.041 1.263-.082a.851.851 0 00.576-.749.844.844 0 00-.48-.631 3.224 3.224 0 00-1.009-.275l-.775-.123a18.67 18.67 0 01-5.558-1.483 4.31 4.31 0 01-2.202-2.231 1.861 1.861 0 01.199-1.51 2.944 2.944 0 011.331-1.14c1.88-.899 3.678-.357 5.414.172l.494.15c.092.035.19.051.288.049.164 0 .267-.281.254-.487-.055-.77-1.036-1.222-1.455-1.373a8.381 8.381 0 00-4.233-.46v-.014z" fill="#231F20"/><path d="M135.477 122.234s3.17 15.83 3.43 16.784c.261.954 7.754 4.874 13.723 1.023l5.221-16.18-22.374-1.627z" fill="#FFF"/><path d="M146.79 142.052a14.849 14.849 0 01-5.241-1.002c-1.317-.508-2.813-1.332-2.978-1.943-.254-.954-3.3-16.152-3.43-16.804a.33.33 0 01.356-.405l22.375 1.661a.336.336 0 01.302.447l-5.222 16.179a.336.336 0 01-.144.178 10.899 10.899 0 01-6.017 1.689zm-10.888-19.44c.515 2.574 3.108 15.472 3.335 16.317.096.226 1.33 1.146 3.52 1.812 2.058.625 5.996 1.332 9.605-.92l5.05-15.644-21.51-1.565z" fill="#231F20"/><ellipse fill="#231F20" transform="rotate(-87.65 146.696 122.697)" cx="146.696" cy="122.697" rx="4.86" ry="11.218"/><path d="M147.566 127.918h-1.09c-6.485-.26-11.466-2.746-11.342-5.67.123-2.924 5.29-4.983 11.767-4.716 6.477.268 11.458 2.746 11.335 5.67-.055 1.442-1.373 2.746-3.644 3.597a19.89 19.89 0 01-7.026 1.12zm-1.722-9.754c-5.44 0-9.935 1.785-10.031 4.119-.096 2.443 4.803 4.715 10.69 4.956 2.673.156 5.35-.22 7.877-1.106 1.99-.761 3.156-1.853 3.204-2.986.103-2.45-4.803-4.722-10.683-4.963l-1.057-.02z" fill="#231F20"/><path d="M119.847 78.254H83.543a.343.343 0 01-.343-.343V67.189a.35.35 0 01.343-.343h36.304c.189 0 .343.153.343.343v10.743a.343.343 0 01-.343.322zm-35.96-.686h35.617V67.532H83.886v10.036zM.83 154.236h186.333v7.187H.83z" fill="#FFF"/><path d="M187.17 161.767H.83a.343.343 0 01-.343-.344v-7.187a.35.35 0 01.343-.343h186.34a.35.35 0 01.343.343v7.187c0 .19-.154.344-.343.344zM1.173 161.08h185.654v-6.5H1.173v6.5z" fill="#D1D3D4"/><path d="M157.845 87.116a.35.35 0 01-.337-.35c0-.79.501-19.399 2.553-25.844 2.051-6.446 5.9-9.13 6.058-9.233a.343.343 0 11.385.57c-.042 0-3.795 2.601-5.791 8.869-1.997 6.267-2.512 25.46-2.519 25.652a.343.343 0 01-.35.336z" fill="#FFF"/></g></g></svg>