<svg width="202" height="202" xmlns="http://www.w3.org/2000/svg"><g fill="none" fill-rule="evenodd"><circle opacity=".203" transform="matrix(0 1 1 0 0 0)" cx="101" cy="101" r="101"/><g transform="translate(9 20)" fill-rule="nonzero"><path d="M183.03 146.454H.97a.355.355 0 010-.71h182.06a.355.355 0 010 .71z" fill="#D1D3D4"/><path fill="#FFF" d="M127.144 84.141h40.643v70.058h-40.643z"/><path d="M167.787 154.554h-40.643a.355.355 0 01-.354-.356V84.141c0-.197.159-.356.354-.356h40.643c.195 0 .354.16.354.356v70.043a.357.357 0 01-.354.37zm-40.29-.71h39.936V84.495h-39.935v69.347z" fill="#231F20"/><path fill="#FFF" d="M15.173 84.141h40.643v70.058H15.173z"/><path d="M55.816 154.554H15.173a.355.355 0 01-.354-.356V84.141c0-.197.158-.356.354-.356h40.643c.195 0 .354.16.354.356v70.043a.357.357 0 01-.354.37zm-40.29-.71h39.936V84.495H15.527v69.347zM134.71 63.827l8.046 16.22h-21.762z" fill="#231F20"/><path d="M142.756 80.403h-21.74a.35.35 0 01-.269-.583l13.715-16.22a.332.332 0 01.31-.122.354.354 0 01.277.192l8.04 16.222a.342.342 0 01-.333.511zm-20.998-.71h20.424l-7.55-15.22-12.874 15.22z" fill="#231F20"/><path fill="#231F20" d="M72.906 80.048h51.81l18.797-27.654H94.604z"/><path d="M124.717 80.403H72.892a.354.354 0 01-.276-.575l21.698-27.654a.346.346 0 01.276-.135H143.5c.13.004.249.077.311.192a.35.35 0 010 .37l-18.796 27.646a.347.347 0 01-.297.156zm-51.082-.71h50.919l18.315-26.944H94.774L73.635 79.693z" fill="#231F20"/><path fill="#FFF" d="M96.161 55.08L80.677 75.223h38.449l14.55-20.143z"/><path d="M119.126 75.579h-38.45a.354.354 0 01-.318-.2.378.378 0 010-.376L95.85 54.86a.346.346 0 01.276-.135h37.508a.34.34 0 01.31.192.35.35 0 010 .37l-14.55 20.142a.346.346 0 01-.268.15zm-37.727-.71h37.507l14.076-19.448H96.338l-14.94 19.447z" fill="#231F20"/><path d="M107.173 71.557a.354.354 0 01-.333-.241c-1.86-5.507-4.451-11.547-5.392-11.689-1.126 0-8.344 5.99-14.756 11.845a.355.355 0 01-.587-.185.358.358 0 01.106-.34c2.222-2.026 13.27-12.023 15.3-12.023h.078c1.812.277 5.018 9.379 5.959 12.164a.35.35 0 01-.226.448.29.29 0 01-.15.021z" fill="#D1D3D4"/><path d="M118.722 72.296a.354.354 0 01-.34-.263c-1.245-4.44-3.021-9.18-3.856-9.429-.835-.248-4.713 3.269-7.87 6.651a.354.354 0 01-.502.014.358.358 0 01-.014-.504c1.613-1.727 6.992-7.319 8.591-6.836 1.6.484 3.892 8.342 4.331 9.948a.355.355 0 01-.24.44l-.1-.02z" fill="#D1D3D4"/><path d="M130.095 66.079c-.87 0-1.557-.42-1.557-.952 0-.533.708-.945 1.557-.945.85 0 1.557.412 1.557.945 0 .533-.686.952-1.557.952zm0-1.72c-.75 0-1.415.349-1.415.768 0 .42.63.774 1.415.774.786 0 1.38-.355 1.38-.774 0-.42-.63-.746-1.38-.746v-.022zM136.28 58.022h-3.142a.092.092 0 01-.085-.086c0-.048.037-.088.085-.092h3.142a.085.085 0 01.085.092.085.085 0 01-.085.086z" fill="#A7A9AC"/><path d="M124.717 80.403a.375.375 0 01-.213-.064.363.363 0 01-.078-.497l10.036-13.827a.354.354 0 01.495-.078c.155.118.19.337.078.497L125 80.29a.36.36 0 01-.283.114z" fill="#FFF"/><path d="M107.173 60.21c-.86 0-1.557-.7-1.557-1.563a1.56 1.56 0 011.557-1.563c.86 0 1.557.7 1.557 1.563a1.56 1.56 0 01-1.557 1.563zm0-2.416a.85.85 0 00-.85.853c0 .47.38.852.85.852a.85.85 0 00.85-.852.847.847 0 00-.85-.853z" fill="#D1D3D4"/><path fill="#FFF" d="M9.773 80.652h159.74v6.8H9.773z"/><path d="M169.52 87.807H9.774a.355.355 0 01-.354-.355v-6.8a.362.362 0 01.354-.355h159.748c.193.003.35.16.353.355v6.8a.355.355 0 01-.353.355zm-159.393-.71h159.011V81H10.128v6.096z" fill="#231F20"/><path d="M69.856 117.436c.149.504-8.79 32.72-8.79 32.72l12.492 2.017 14.762-44.507-18.464 9.77z" fill="#FFF"/><path d="M73.558 152.529H73.5l-12.49-2.018a.36.36 0 01-.249-.157.414.414 0 01-.042-.29c3.489-12.549 8.683-31.527 8.782-32.593a.356.356 0 01.192-.34l18.463-9.77a.367.367 0 01.397.042.378.378 0 01.106.384l-14.77 44.507a.347.347 0 01-.332.235zm-12.031-2.665l11.804 1.912 14.395-43.378-17.551 9.28c-.39 2.039-3.298 12.846-8.662 32.186h.014z" fill="#231F20"/><path d="M60.31 148.763l-1.904 6.01 29.914 2.324a12.452 12.452 0 00-6.794-6.146c-3.107-1.094-6.454-2.401-6.454-2.401l-1.514 3.623-13.248-3.41z" fill="#231F20"/><path d="M88.32 157.453l-29.914-2.324a.354.354 0 01-.312-.462l1.904-6.01a.354.354 0 01.425-.235l12.95 3.332 1.416-3.34a.347.347 0 01.453-.191c.035 0 3.376 1.314 6.447 2.394a12.757 12.757 0 016.999 6.338c.06.108.06.24 0 .348a.34.34 0 01-.368.15zm-29.447-2.999L87.71 156.7a12.15 12.15 0 00-6.298-5.414c-2.527-.888-5.237-1.925-6.15-2.273l-1.38 3.296a.36.36 0 01-.417.214l-12.923-3.311-1.67 5.243zM39.312 117.862l-2.123 33.935s-7.176.249-8.973 1.513c-1.798 1.265-3.263 6.992-3.263 6.992h2.237s1.302-4.263 2.731-4.775c1.43-.511 9.554-.71 9.554-.71s3.92 1.52 4.55 4.128c.496 2.053.354 2.53.354 2.53h2.477a12.737 12.737 0 00-.495-3.454c-.495-1.421-2.357-3.12-2.357-3.12s4.098.086 5.464.086c1.366 0 2.788 2.615 2.788 2.615h2.668s-2.788-4.718-4.593-5.052c-1.805-.334-6.433-1.144-6.433-1.144l-1.26-31.618-3.326-1.926z" fill="#231F20"/><path d="M46.885 161.837h-2.477a.382.382 0 01-.29-.143.37.37 0 01-.05-.32 7.552 7.552 0 00-.36-2.337c-.532-2.224-3.78-3.652-4.247-3.85-2.3.049-8.259.262-9.37.71-.92.34-2.031 2.97-2.512 4.54a.361.361 0 01-.34.256h-2.257a.36.36 0 01-.34-.448c.056-.234 1.514-5.869 3.397-7.19 1.663-1.166 7.402-1.5 8.846-1.564l2.08-33.622a.37.37 0 01.185-.291.36.36 0 01.34 0l3.354 1.94c.105.06.172.17.177.29l1.252 31.335c1.033.178 4.629.803 6.157 1.094 1.897.356 4.536 4.718 4.827 5.216a.356.356 0 010 .355.36.36 0 01-.312.185h-2.668a.36.36 0 01-.311-.185c-.51-.938-1.642-2.43-2.477-2.43-.963 0-3.298-.043-4.586-.064a8.207 8.207 0 011.812 2.622c.34 1.153.513 2.35.516 3.552a.355.355 0 01-.346.349zm-2.123-.71h1.748a11.467 11.467 0 00-.468-2.985c-.46-1.329-2.243-2.949-2.264-2.97a.363.363 0 01-.092-.39.382.382 0 01.34-.228c.042 0 4.104.085 5.456.085 1.352 0 2.611 1.954 2.993 2.615h1.826c-.948-1.5-2.83-4.128-4.02-4.349-1.776-.334-6.369-1.13-6.425-1.137a.355.355 0 01-.298-.34l-1.238-31.42-2.69-1.556-2.059 33.395a.355.355 0 01-.34.334c-1.967.07-7.38.461-8.782 1.42-1.274.896-2.505 4.54-3.007 6.346h1.514c.326-1.002 1.486-4.264 2.83-4.754 1.345-.49 9.342-.71 9.675-.71h.134c.17.064 4.105 1.613 4.77 4.37.21.742.348 1.504.41 2.273h-.013z" fill="#231F20"/><path d="M80.231 96.22s28.265 1.513 30.049 5.556c1.783 4.043-11.323 48.5-11.323 48.5s13.835 4.803 11.57 5.812c-2.264 1.01-24.91-1.009-24.91-1.009l10.735-41.21-27.968-1.89 11.847-15.76z" fill="#FFF"/><path d="M106.968 156.728c-6.638 0-19.54-1.13-21.358-1.293a.36.36 0 01-.262-.15.364.364 0 01-.05-.298l10.616-40.763-27.544-1.861a.382.382 0 01-.297-.206.35.35 0 01.042-.363L79.97 96.006a.304.304 0 01.297-.142c.071 0 7.162.384 14.38 1.265 14.784 1.79 15.683 3.83 15.98 4.505 1.748 3.972-9.907 44.052-11.195 48.422 3.758 1.315 11.684 4.263 11.74 5.72a.66.66 0 01-.46.64c-1.226.284-2.487.39-3.743.312zm-20.884-1.968c6.567.582 22.575 1.783 24.323 1.002-.467-.86-6.284-3.311-11.564-5.138a.356.356 0 01-.219-.44c3.623-12.328 12.738-45.04 11.323-48.259-1.415-3.219-21.613-4.903-29.553-5.336L69.07 111.702l27.317 1.854a.36.36 0 01.269.142.406.406 0 01.056.299l-10.63 40.763z" fill="#231F20"/><path d="M70.642 70.953s14.522 18.19 20.728 17.685c6.207-.504 23.984-22.929 23.984-22.929 3.213-3.85 6.808-8.739 4.508-14.047-.227-.511-.623-1.058-1.175-1.016a1.497 1.497 0 00-.644.263l-1.981 1.222c.063-.547-.63-.938-1.161-.788-.517.202-.947.58-1.217 1.065-2.06 2.942-3.39 5.741-3.277 9.365L89.63 72.431l-8.244-9.159" fill="#FFF"/><path d="M91.122 89c-6.447 0-20.169-17.052-20.756-17.827a.356.356 0 01.074-.474.353.353 0 01.478.034c.141.178 14.097 17.564 20.183 17.564h.24c5.988-.483 23.546-22.573 23.716-22.8 3.319-3.965 6.666-8.612 4.465-13.678-.085-.2-.382-.832-.82-.803a1.165 1.165 0 00-.49.213l-1.995 1.215a.353.353 0 01-.538-.341.285.285 0 00-.127-.263.706.706 0 00-.58-.142 2.126 2.126 0 00-1.026.93c-1.741 2.488-3.334 5.315-3.213 9.152a.355.355 0 01-.191.327L89.764 72.765a.353.353 0 01-.425-.078l-8.237-9.173a.356.356 0 01.502-.505l8.054 8.939 20.346-10.41c-.064-3.929 1.564-6.82 3.34-9.357a2.763 2.763 0 011.415-1.208c.436-.105.895.003 1.239.291.095.084.176.182.24.292l1.586-.974a1.8 1.8 0 01.806-.312c.616-.05 1.161.405 1.515 1.229 2.562 5.897-2.067 11.44-4.558 14.417-.707.909-17.918 22.545-24.21 23.056l-.255.029z" fill="#231F20"/><path d="M23.106 67.848s-7.48 17.017-4.706 18.836c2.774 1.82 19.66 0 19.66 0l-1.465-22.026" fill="#FFF"/><path d="M24.819 87.807c-3.022 0-5.662-.213-6.624-.853-.481-.312-1.953-1.272 1.182-10.487 1.507-4.44 3.382-8.718 3.404-8.76a.354.354 0 11.644.283c-2.831 6.473-6.667 17.18-4.841 18.367 2.123 1.421 14.154.484 19.108 0L36.276 64.68a.355.355 0 11.708-.05l1.465 22.027a.355.355 0 01-.319.376c-.495.029-7.628.775-13.311.775z" fill="#231F20"/><path d="M29.2 96.688s-3.66 8.157.24 13.301c3.9 5.145 58.03 5.763 58.03 5.763l3.886-19.533-22.646-3.097-1.316-6.758-38.195 10.324z" fill="#FFF"/><path d="M87.485 116.107c-.135 0-13.701-.163-27.6-.952-18.719-1.066-29.065-2.736-30.75-4.974-3.977-5.243-.438-13.315-.282-13.656.042-.1.129-.173.233-.199l38.216-10.324c.095-.03.2-.014.283.043.08.05.137.133.155.227l1.267 6.516 22.37 3.055a.34.34 0 01.24.15.335.335 0 01.057.27l-3.842 19.553a.354.354 0 01-.347.291zm-58.03-19.12c-.46 1.13-3.171 8.256.268 12.79 2.987 3.936 38.725 5.4 57.472 5.627l3.758-18.879-22.25-3.041a.354.354 0 01-.297-.284l-1.239-6.395-37.713 10.182z" fill="#231F20"/><path d="M51.378 27.973a4.876 4.876 0 01-1.415-1.293 7.51 7.51 0 01-1.132-2.522c-1.918-6.963-1.932-15.88 4.246-20.648A14.306 14.306 0 0166.056 1.2c3 .981 5.548 5.124 6.886 7.817 1.097 2.18 1.84 4.554 3.142 6.615 1.302 2.06 3.376 3.865 5.81 3.986a7.306 7.306 0 01-6.37.383 4.146 4.146 0 004.212 1.585c-1.416 1.13-3.44 1.087-5.223.71-1.783-.376-3.539-.945-5.371-.71-2.831.32-4.671 2.408-6.886 3.922-2.81 1.847-7.665 4.334-10.878 2.465z" fill="#FFF"/><path d="M54.046 28.997a5.524 5.524 0 01-2.83-.71 5.082 5.082 0 01-1.536-1.422 7.93 7.93 0 01-1.189-2.672c-.934-3.41-3.397-15.02 4.352-21.017A14.623 14.623 0 0166.155.81c3.213 1.044 5.824 5.436 7.077 7.958.425.853.807 1.74 1.168 2.6a28.141 28.141 0 001.953 3.994c.708 1.1 2.633 3.673 5.527 3.815.157.006.29.117.326.27a.342.342 0 01-.17.39 7.673 7.673 0 01-5.166.846c.829.512 1.823.68 2.774.47a.356.356 0 01.304.625c-1.267 1.001-3.12 1.271-5.513.81-.425-.079-.85-.178-1.274-.277a11.929 11.929 0 00-3.984-.455c-2.003.227-3.489 1.42-5.067 2.622-.538.419-1.09.845-1.663 1.243-1.65 1.151-5.188 3.276-8.4 3.276zm7.75-28.13a13.998 13.998 0 00-8.535 2.899c-7.395 5.734-5.01 16.96-4.098 20.271.207.87.575 1.695 1.083 2.43.355.487.806.895 1.324 1.2 3.41 1.99 8.895-1.42 10.495-2.507a30.127 30.127 0 001.62-1.215c1.585-1.237 3.227-2.516 5.428-2.764a12.43 12.43 0 014.246.469c.418.092.835.192 1.253.27a7.86 7.86 0 003.58 0 4.54 4.54 0 01-2.922-1.777.356.356 0 010-.426.339.339 0 01.41-.106 7.001 7.001 0 004.997.106 8.648 8.648 0 01-4.89-3.958 28.077 28.077 0 01-2.01-4.092c-.361-.846-.708-1.727-1.154-2.558-.976-1.954-3.588-6.6-6.673-7.603a13.402 13.402 0 00-4.154-.64z" fill="#231F20"/><path d="M70.557 22.914s1.932 6.068.92 6.928c-1.012.86-3.114-.49-3.114-.49" fill="#FFF"/><path d="M70.62 30.489a5.258 5.258 0 01-2.427-.839.356.356 0 11.382-.597c.496.313 2.046 1.088 2.69.52.488-.42-.142-3.724-1.048-6.545a.363.363 0 01.234-.447.354.354 0 01.446.227c.467 1.478 1.917 6.395.828 7.304a1.61 1.61 0 01-1.104.377z" fill="#231F20"/><path d="M71.732 15.958c1.649 2.36 0 5.898-.708 8.306a227.36 227.36 0 01-3.163 10.097c-.708 2.132-6.285.59-7.077-.327l-1.515 8.747-11.726-4.072 3.772-10.608s3.772 1.095 7.169-2.678c3.397-3.773 5.76-13.394 5.76-13.394s5.881 1.62 7.488 3.93z" fill="#FFF"/><path d="M59.262 43.136h-.113L47.415 39.08a.34.34 0 01-.205-.178.414.414 0 010-.277l3.744-10.643a.346.346 0 01.424-.22c.15.035 3.617.973 6.816-2.58 3.198-3.553 5.661-13.138 5.661-13.237a.34.34 0 01.163-.22.353.353 0 01.269 0c.247.07 6.03 1.684 7.692 4.064 1.472 2.131.524 4.974-.247 7.318-.149.455-.29.888-.41 1.293A232.04 232.04 0 0168.15 34.51a1.954 1.954 0 01-1.628 1.187 9.627 9.627 0 01-5.527-1.038l-1.415 8.186a.334.334 0 01-.17.241.318.318 0 01-.149.05zM47.99 38.49l10.997 3.823 1.416-8.342a.355.355 0 01.615-.17c.51.59 3.574 1.556 5.372 1.2.608-.12.976-.376 1.104-.76a227.467 227.467 0 003.163-10.075c.12-.412.269-.853.418-1.322.707-2.167 1.613-4.867.34-6.686-1.275-1.819-5.662-3.296-6.95-3.68-.474 1.812-2.668 9.755-5.754 13.18-2.965 3.29-6.178 3.041-7.204 2.842l-3.517 9.99z" fill="#231F20"/><path d="M68.49 31.803s-3.078.881-3.708-2.238" fill="#FFF"/><path d="M67.55 32.272a3.302 3.302 0 01-1.735-.44 3.184 3.184 0 01-1.415-2.196.36.36 0 01.708-.142c.095.7.48 1.327 1.061 1.727.68.344 1.462.43 2.201.241a.366.366 0 01.45.45.367.367 0 01-.259.26 4.16 4.16 0 01-1.012.1z" fill="#231F20"/><path d="M63.459 23.263a4.842 4.842 0 00-.29-2.6 7.178 7.178 0 00-.793-1.89 2.349 2.349 0 00-1.67-1.074 2.12 2.12 0 00-1.62.71c-.414.446-.72.98-.892 1.564a7.59 7.59 0 001.535 7.382l-.134-.256" fill="#FFF"/><path d="M59.73 27.71a.367.367 0 01-.263-.113 8.003 8.003 0 01-1.613-7.766c.19-.635.524-1.216.976-1.698a2.507 2.507 0 011.904-.79c.798.092 1.51.545 1.932 1.23.376.616.66 1.284.842 1.983a5.17 5.17 0 01.298 2.792.36.36 0 01-.44.256.355.355 0 01-.247-.434 4.614 4.614 0 00-.29-2.401 6.473 6.473 0 00-.75-1.79 1.946 1.946 0 00-1.416-.925c-.51-.01-.999.2-1.344.576-.377.405-.655.89-.814 1.421a7.278 7.278 0 001.153 6.693c.1.028.184.094.234.185l.127.256a.349.349 0 01-.113.454.332.332 0 01-.177.072z" fill="#231F20"/><ellipse fill="#231F20" transform="rotate(-77.39 70.297 19.985)" cx="70.297" cy="19.985" rx="1.257" ry="1"/><path d="M60.777 34.034a43.273 43.273 0 01-4.41-3.29s-.707 6.154 3.49 7.568l.92-4.278z" fill="#231F20"/><path d="M59.857 38.667a.317.317 0 01-.114 0c-4.401-1.485-3.757-7.68-3.73-7.944.016-.13.1-.24.22-.291a.367.367 0 01.361.057 43.89 43.89 0 004.374 3.268c.121.08.182.226.155.37l-.92 4.263a.362.362 0 01-.17.234.388.388 0 01-.176.043zm-3.17-7.198c0 1.52.197 5.152 2.915 6.36l.778-3.631a43.93 43.93 0 01-3.694-2.729z" fill="#231F20"/><path d="M27.006 99.381s.636-43.484 7.133-53.495c6.497-10.012 23.354-12.271 31.393-6.303 8.04 5.969 4.169 51.585 4.169 51.585S44.068 99.38 27.006 99.38z" fill="#E7816B"/><path d="M59.92 37.026a46.893 46.893 0 0111.861 7.027c5.563 4.64 17.303 24.59 17.303 24.59L73.6 78.059 59.7 60.85l.22-23.823zM40.834 39.733s-8.103.916-12.392 9.848c-2.321 4.845-8.266 20.491-8.266 20.491l17.877 2.068 2.78-32.407z" fill="#E7816B"/><path d="M72.44 76.971a.346.346 0 01-.284-.149L58.35 57.943a.356.356 0 01.071-.497.36.36 0 01.495.078l13.807 18.879a.356.356 0 01-.283.568zM113.655 55.634l3.454-10.764 1.076.312-2.173 10.616s-1.529 1.478-2.357-.164z" fill="#231F20"/><path d="M114.717 56.764h-.24a1.587 1.587 0 01-1.14-.952.357.357 0 010-.27l3.432-10.779a.368.368 0 01.439-.234l1.076.312a.355.355 0 01.247.412l-2.172 10.658a.341.341 0 01-.1.178 2.493 2.493 0 01-1.542.675zm-.708-1.172c.11.227.315.394.56.454.405.004.796-.152 1.09-.433l2.087-10.182-.432-.12-3.305 10.28z" fill="#231F20"/><path d="M48.35 31.263c-6.37-1.42-13.447-.426-18.592 3.553a13.205 13.205 0 00-4.692 6.395 8.397 8.397 0 001.317 7.659c4.883 5.89 15.604 5.862 22.235 3.936 4.523-1.307 17.912-7.688 14.225-13.954-2.654-4.484-9.717-6.559-14.493-7.589z" fill="#E7816B"/><path d="M40.24 53.34a25.013 25.013 0 01-11.982-3.461.348.348 0 01-.113-.49.353.353 0 01.488-.107c.085.057 8.84 5.52 17.126 2.366 3.978-1.513 6.37-4.2 8.655-6.792 2.527-2.843 4.912-5.528 9.03-5.905a.353.353 0 01.383.327.35.35 0 01-.319.384c-3.835.348-6.03 2.842-8.563 5.684-2.25 2.536-4.798 5.407-8.938 6.984a16.219 16.219 0 01-5.768 1.01zM27.642 83.842a.354.354 0 01-.34-.37c.517-11.247 2.832-27.433 2.832-27.596a.361.361 0 01.403-.299c.19.03.322.207.297.398 0 .164-2.342 16.342-2.83 27.526a.355.355 0 01-.362.341zM81.915 154.32h15.039s1.635-3.66 5.159-4.164c0 0 13.715 5.819 11.698 7.012-2.017 1.194-32.957 1.066-32.957 1.066l1.061-3.915z" fill="#231F20"/><path d="M84.01 158.597h-3.163a.356.356 0 01-.34-.448l1.062-3.915a.354.354 0 01.346-.263h14.82c.417-.817 2.123-3.702 5.328-4.164a.324.324 0 01.184 0c2.831 1.194 12.031 5.23 12.123 6.992a.711.711 0 01-.375.654c-1.72 1.037-21.783 1.144-29.985 1.144zm-2.696-.71c12.406.035 30.919-.193 32.32-1.024 0-.881-5.994-3.972-11.57-6.345-3.214.526-4.77 3.915-4.785 3.95a.354.354 0 01-.325.206h-14.77l-.87 3.212zM70.55 119.368c9.575-2.025 15.994-6.522 12.229-12.59-3.765-6.068-30.806-2.132-36.093-6.63-5.286-4.497-3.396-28.35-9.2-32.435-5.803-4.085-30.678-8.214-33.46-3.055-2.78 5.158 0 42.695 8.104 51.03 8.103 8.334 49.078 5.613 58.42 3.68z" fill="#231F20"/><path d="M42.462 121.749h-1.6c-10.757-.093-24.521-1.18-29.015-5.784-8.011-8.299-11.14-45.85-8.132-51.456.517-.96 1.699-1.663 3.539-2.132 7.692-1.833 25.477 1.506 30.43 4.974 3.122 2.195 4.091 9.677 5.032 16.91.857 6.608 1.741 13.436 4.211 15.547 2.35 2.003 9.568 2.295 16.553 2.579 8.598.348 17.494.71 19.624 4.135 1.232 1.99 1.472 3.908.708 5.684-1.415 3.283-6.072 5.919-13.17 7.418-4.876 1.08-16.794 2.125-28.18 2.125zm-29.83-59.137a23.694 23.694 0 00-5.237.49c-1.613.384-2.646.973-3.057 1.748-2.746 5.094.248 42.567 8.047 50.61 7.933 8.179 48.696 5.507 58.087 3.553 6.773-1.42 11.387-3.979 12.668-7.006.665-1.563.446-3.26-.658-5.044-1.932-3.112-10.616-3.46-19.052-3.802-7.43-.298-14.45-.582-16.984-2.75-2.675-2.287-3.539-8.945-4.452-15.993-.912-7.049-1.868-14.41-4.741-16.42-3.822-2.708-16.135-5.386-24.62-5.386z" fill="#231F20"/><path d="M88.32 99.737h-.057l-22.816-4.008a.36.36 0 01.12-.71l22.817 4.007a.356.356 0 01-.064.71z" fill="#D1D3D4"/><path d="M154.1 146.368l-.708-.078c0-.206 2.23-20.776-4.862-29.913l.56-.433c3.057 3.936 4.833 10.26 5.265 18.793a80.41 80.41 0 01-.255 11.631z" fill="#231F20"/><path d="M151.658 148.99a2.446 2.446 0 01.071-.71c1.692-10.765-1.175-15.781-3.878-18.097l.46-.54c2.83 2.43 5.86 7.66 4.119 18.75-.043.27-.07.448-.07.52l-.702.077z" fill="#231F20"/><path d="M147.986 125.614a4.036 4.036 0 00-1.883-.554 4.326 4.326 0 00-3.333.916c-.234.228-.439.611-.227.86a.84.84 0 00.453.213 2.836 2.836 0 011.946 1.954c-.488-.362-.905-.824-1.415-1.186a2.379 2.379 0 00-1.691-.555 2.83 2.83 0 00-1.65 1.109 6.58 6.58 0 00-1.124 1.655 3.06 3.06 0 00-.255 1.968 4.702 4.702 0 011.988-.135c.474.043.923.23 1.288.533.11.086.19.206.227.341a.568.568 0 01-.446.604 1.79 1.79 0 01-.82 0 14.376 14.376 0 00-1.749-.248 1.713 1.713 0 00-.658.042c-.518.29-.8.875-.708 1.464-.01.24.08.475.248.647.29.227.708.064 1.047-.079a5.12 5.12 0 011.869-.397.43.43 0 01.212.035.313.313 0 01.057.462.841.841 0 01-.453.263c-.486.154-.983.27-1.487.348-.29.043-.63.107-.77.37a.806.806 0 00-.079.369 4.56 4.56 0 00.793 2.707c.088.144.203.27.34.37.194.103.41.161.63.17a10.28 10.28 0 004.953-.71.439.439 0 00.205-.15c.092-.163-.063-.355-.184-.497-.523-.647-.403-1.577-.254-2.395a.712.712 0 01.184-.426.473.473 0 01.637.1c.143.194.224.426.233.667.105.841.037 1.695-.198 2.509.815-.191 1.61-.462 2.37-.81a7.316 7.316 0 001.728-.96 2.843 2.843 0 001.054-1.634.528.528 0 00-.035-.362.588.588 0 00-.213-.185 4.486 4.486 0 01-1.67-1.975c-.07-.17-.106-.405.05-.49a.338.338 0 01.205 0c.892.149 1.345 1.15 2.08 1.684.059.048.13.078.206.085a.325.325 0 00.24-.107c.296-.276.497-.64.574-1.037a3.759 3.759 0 00-.128-2.366 2.672 2.672 0 00-1.727-1.556 3.038 3.038 0 00-1.104-.05c-.127 0-.806.242-.898.156-.092-.085.269-.597.354-.767.46-1.052-.156-2.402-1.012-2.97zM158.679 119.184a3.407 3.407 0 00-2.831 1.47 3.935 3.935 0 00-.495 2.459c.11.842.314 1.669.608 2.465a3.46 3.46 0 012.704-1.769c1.153-.1-.191 1.016-.39 1.25a66.853 66.853 0 00-1.89 2.353c-.18.199-.3.445-.346.71-.002.286.082.566.24.803a7.257 7.257 0 002.124 2.721c.253.223.61.28.92.15.143-.12.25-.278.311-.455a8.102 8.102 0 011.31-1.961c.127-.15.332-.299.495-.192.163.106.134.27.12.426l-.149 1.585a3.773 3.773 0 00.1 1.712c.375 1.009 1.507 1.513 2.561 1.712.288.079.59.079.878 0 .566-.199.8-.874.899-1.47a4.378 4.378 0 01.927-2.132 7.973 7.973 0 00.97 2.935c.255.487.61.915 1.04 1.257.457.326.982.545 1.535.64a11.49 11.49 0 002.831.156 7.05 7.05 0 001.94-.249 2.627 2.627 0 001.528-1.158c.559-1.009.127-2.31-.595-3.204-.722-.896-1.698-1.564-2.448-2.437a6.841 6.841 0 012.554 1.335.947.947 0 00.708.327.63.63 0 00.326-.185c1.118-1.122-.17-3.02-.765-4.028a3.27 3.27 0 00-1.585-1.634 2.58 2.58 0 00-1.274 0c-.637.106-3.793 1.548-2.448-.349a3.702 3.702 0 012.93-1.286c.544.05 1.372.49 1.358-.533a1.923 1.923 0 00-.41-1.001c-.438-.658-.91-1.291-1.416-1.898a.927.927 0 00-.53-.376.903.903 0 00-.531.15 12.043 12.043 0 01-4.204 1.576c-.34 0-.814-.106-.757-.44a.497.497 0 01.22-.291c.898-.71 2.243-.405 3.163-1.06.277-.176.461-.468.502-.795 0-.476-.389-.852-.771-1.144a6.697 6.697 0 00-3.376-1.57c-1.861-.15-3.538 1.08-4.79 2.48-.418.476-.709 1.712-1.353 1.634a10.734 10.734 0 01-1.189-.505 4.04 4.04 0 00-1.26-.184zM149.663 109.35a3.103 3.103 0 00-.927-1.89c-.949-.867-2.371-.91-3.638-.71a18.55 18.55 0 00-2.788.83c-.913.264-1.182.47-.368 1.216.573.518 2.123 2.373 1.415 3.261-.707.888-1.896-1.378-2.356-1.755a3.362 3.362 0 00-2.237-.96 3.485 3.485 0 00-1.925 1.024c-.551.49-1.076 1.01-1.57 1.556a.789.789 0 00-.185.277c-.113.412.446.654.864.71 1.196.221 2.533.846 2.774 2.04-1.232.305-2.392-.945-3.652-.81a2.87 2.87 0 00-2.017 1.798c-.34.799-.445 1.679-.304 2.536a6.726 6.726 0 013.312-.284.572.572 0 01.368.163.413.413 0 01-.163.555c-.192.096-.41.133-.623.106h-2.052a.889.889 0 00-.573.135.812.812 0 00-.227.533 11.185 11.185 0 00-.035 2.842 2.42 2.42 0 00.644 1.578c.32.242.694.403 1.09.468a14.34 14.34 0 003.163.398 2.51 2.51 0 01-.318-2.295c.424-.994 1.146-.419 1.182.484 0 .426-.078.845-.092 1.271a.45.45 0 00.042.235c.043.055.099.1.163.128a2.588 2.588 0 001.84.241 1.18 1.18 0 00.488-.22c.33-.394.44-.927.297-1.421l-.29-2.565a.4.4 0 01.071-.348c.127-.128.354 0 .488.1.528.47.81 1.16.765 1.868 0 .405-.17.796-.199 1.194a1.16 1.16 0 00.425 1.073 1.41 1.41 0 001.09.056 2.12 2.12 0 001.238-.646c.282-.448.367-.994.234-1.506a9.562 9.562 0 01-.297-1.542c0-1.052 1.075-2.558 1.252-.71.007.602-.028 1.206-.106 1.804a.528.528 0 000 .234.48.48 0 00.404.192 4.457 4.457 0 002.413-.469c.513-.25.963-.615 1.316-1.066.262-.37.482-.768.658-1.186.857-1.826 2.222-3.254.63-5.208-.545-.668-1.557-.846-2.066-1.528-.602-.81.325-2.096.36-3.112.025-.224.032-.45.022-.675z" fill="#231F20"/><path d="M144.56 144.237h18.046l-1.415 13.6a4.04 4.04 0 01-4.02 3.637h-7.211a4.04 4.04 0 01-4.013-3.638l-1.387-13.6z" fill="#FFF"/><path d="M157.2 161.85h-7.24a4.401 4.401 0 01-4.38-3.971l-1.416-13.6c-.007-.1.026-.2.092-.277a.368.368 0 01.276-.12h18.046a.346.346 0 01.27.12.335.335 0 01.091.277l-1.415 13.6a4.395 4.395 0 01-4.324 3.972zm-12.236-17.237l1.344 13.195a3.671 3.671 0 003.652 3.311h7.24a3.671 3.671 0 003.651-3.311l1.352-13.195h-17.24z" fill="#231F20"/><path d="M156.089 144.486c0-.128-1.416-13.145 4.953-23.633l.61.37c-6.236 10.274-4.849 23.05-4.834 23.177l-.73.086z" fill="#231F20"/><path d="M139.698 119.795a.36.36 0 01-.24-.1.356.356 0 010-.504c3.694-3.908 9.511-6.288 9.759-6.395a.356.356 0 01.262.66c-.057 0-5.924 2.417-9.512 6.218a.353.353 0 01-.269.12zM142.19 137.899a.354.354 0 01-.312-.519 29.544 29.544 0 015.053-6.892.346.346 0 01.495 0 .356.356 0 010 .498 29.019 29.019 0 00-4.91 6.714.36.36 0 01-.326.199zM172.28 132.868a.368.368 0 01-.297-.156c-.17-.263-4.246-6.395-9.08-10.018a.356.356 0 01-.07-.498.36.36 0 01.495-.07c4.827 3.658 8.804 9.535 9.243 10.188a.356.356 0 01-.1.49.325.325 0 01-.19.064zM127.441 9.45h42.964v30.283h-42.964z" fill="#FFF"/><path d="M170.398 40.088h-42.957a.355.355 0 01-.354-.355V9.45c0-.196.159-.355.354-.355h42.957c.196 0 .354.159.354.355v30.283a.355.355 0 01-.354.355zm-42.603-.71h42.25V9.804h-42.25v29.572z" fill="#D1D3D4"/><path d="M155.169 68.48a.361.361 0 01-.354-.298l-1.741-11.34-3.043 1.35a.353.353 0 01-.467-.185.35.35 0 01.184-.461l3.474-1.507a.346.346 0 01.312 0 .362.362 0 01.184.256l1.812 11.76a.35.35 0 01-.298.404l-.063.022z" fill="#231F20"/><path fill="#FFF" d="M161.17 80.652h-8.86l-.482-19.149h9.823z"/><path d="M161.17 81h-8.86a.355.355 0 01-.354-.341l-.51-19.142a.363.363 0 01.354-.37h9.823c.196.012.35.173.354.37l-.482 19.185a.354.354 0 01-.325.298zm-8.492-.71h8.166l.46-18.439h-9.115l.489 18.438z" fill="#231F20"/><path fill="#FFF" d="M150.93 59.563h11.62v1.94h-11.62z"/><path d="M162.55 61.858h-11.62a.355.355 0 01-.354-.355v-1.94c0-.196.158-.355.354-.355h11.62c.195 0 .354.16.354.355v1.94a.355.355 0 01-.354.355zm-11.267-.71h10.913v-1.23h-10.913v1.23z" fill="#231F20"/><path d="M156.93 74.186a4.243 4.243 0 01-4.17-2.365 4.276 4.276 0 01.677-4.76 4.235 4.235 0 014.663-1.1 4.263 4.263 0 012.716 3.962 4.086 4.086 0 01-3.885 4.263zm0-7.78a3.535 3.535 0 00-3.514 1.923 3.564 3.564 0 00.521 3.985 3.529 3.529 0 003.89.947 3.552 3.552 0 002.281-3.303 3.377 3.377 0 00-3.177-3.552zM140.052 33.736a7.877 7.877 0 01-2.547-.44 17.16 17.16 0 01-3.093-1.322c-.24-.135-.474-.292-.708-.448a5.174 5.174 0 01-2.271-3.418 2.282 2.282 0 01.24-1.492c.393-.54.934-.952 1.557-1.186a4.039 4.039 0 001.132-.71c.708-.761.432-1.87.15-3.042-.079-.298-.15-.59-.206-.874a6.164 6.164 0 011.344-5.172 6.222 6.222 0 015.259-2.054c2.745.313 4.911 1.641 5.944 3.638a6.189 6.189 0 01-.29 5.926 3.412 3.412 0 00-.623 1.847c.144.586.451 1.118.885 1.535.504.514.86 1.154 1.033 1.854.17 1.166-.594 2.281-2.335 3.41a10.003 10.003 0 01-5.47 1.948zm-5.286-2.388c.944.522 1.937.948 2.965 1.272 2.987 1.023 5.329-.092 7.417-1.42 1.486-.974 2.123-1.855 2.017-2.715a3.428 3.428 0 00-.878-1.506 3.827 3.827 0 01-1.04-1.912 3.84 3.84 0 01.672-2.216 5.526 5.526 0 00.311-5.308c-.92-1.784-2.887-2.97-5.392-3.261a5.487 5.487 0 00-4.65 1.819 5.458 5.458 0 00-1.182 4.568c.057.27.128.554.199.839.304 1.243.65 2.657-.319 3.694-.39.37-.843.67-1.337.881a2.831 2.831 0 00-1.26.917 1.597 1.597 0 00-.149 1.037 4.526 4.526 0 001.989 2.928c.205.15.418.29.637.419v-.036z" fill="#D1D3D4"/><path d="M159.323 33.53a14.162 14.162 0 01-5.287-1.102l-.354-.142a4.528 4.528 0 00-4.805.185 8.547 8.547 0 01-2.463.831 5.779 5.779 0 01-5.06-2.202 8.035 8.035 0 01-1.939-4.1 4.36 4.36 0 012.371-4.583c1.642-.71 3.39-.22 5.088.263 1.218.437 2.508.635 3.8.583a9.02 9.02 0 002.832-.98c.578-.29 1.174-.544 1.783-.761 2.83-.945 8.301 0 10.453 2.373a4.888 4.888 0 011.167 4.668 6.822 6.822 0 01-4.465 4.533 10.005 10.005 0 01-3.121.434zm-7.834-2.558h.17a6.85 6.85 0 012.3.646l.34.143a11.599 11.599 0 007.876.618 6.113 6.113 0 004.005-4.029 4.218 4.218 0 00-1.012-4.014c-1.939-2.132-7.112-3.049-9.702-2.175-.583.202-1.152.44-1.706.71a9.691 9.691 0 01-3.022 1.074 10.718 10.718 0 01-4.076-.611c-1.642-.47-3.199-.917-4.607-.292a3.678 3.678 0 00-1.932 3.844 7.366 7.366 0 001.798 3.745c.75.845 2.32 2.238 4.444 1.968a8.032 8.032 0 002.25-.775 7.007 7.007 0 012.874-.852z" fill="#D1D3D4"/><path d="M158.318 28.208a3.058 3.058 0 01-2.512-1.059 4.707 4.707 0 00-1.175-.86 4.826 4.826 0 00-1.65-.447 3.639 3.639 0 01-2.667-1.28 4.226 4.226 0 01-.786-3.424 5.684 5.684 0 012.619-3.78c3.73-2.202 10.65.093 12.908 3.347.8 1.15 1.713 3.432-1.132 5.74a8.979 8.979 0 01-5.16 1.777l-.445-.014zm-2.548-11.042a6.426 6.426 0 00-3.262.768 4.974 4.974 0 00-2.28 3.297 3.457 3.457 0 00.645 2.842 2.967 2.967 0 002.208 1.023 4.762 4.762 0 013.213 1.535 2.52 2.52 0 002.427.845 8.555 8.555 0 004.756-1.613c1.805-1.47 2.123-3.126.998-4.782-1.515-2.188-5.407-3.915-8.705-3.915z" fill="#D1D3D4"/><path d="M50.317 25.622s2.286-1.862 0-4.264H46.63s.792 3.105 0 4.264h3.687z" fill="#231F20"/><path d="M50.317 25.977H46.63a.368.368 0 01-.319-.192.364.364 0 010-.37c.574-.83.156-3.14-.056-3.957a.406.406 0 01.063-.313.36.36 0 01.284-.135h3.687a.388.388 0 01.254.107 3.445 3.445 0 011.119 2.58 3.38 3.38 0 01-1.147 2.202.36.36 0 01-.198.078zm-3.135-.71h2.993c.444-.43.72-1.005.779-1.62a2.656 2.656 0 00-.814-1.926h-3.086a8.274 8.274 0 01.128 3.545z" fill="#231F20"/><path d="M48.314 24.215a2.664 2.664 0 00-.8-2.267 5.61 5.61 0 00-.927-.952 5.889 5.889 0 00-2.186-.867c-1.72-.419-3.73.114-5.485.15a13.907 13.907 0 01-5.506-1.024 3.707 3.707 0 01-1.564-1.03c-.439 2.58-.382 5.421 1.097 7.588a9.83 9.83 0 004.954 3.432 7.95 7.95 0 007.947-1.158 6.882 6.882 0 002.25-2.977c.103-.29.177-.59.22-.895z" fill="#FFF"/><path d="M40.961 30.169a9.57 9.57 0 01-3.213-.59 10.148 10.148 0 01-5.116-3.552c-1.324-1.94-1.706-4.576-1.147-7.816a.362.362 0 01.262-.284.346.346 0 01.361.127c.389.421.875.738 1.415.924 1.722.662 3.557.974 5.4.917.58 0 1.182-.078 1.819-.15a10.933 10.933 0 013.758 0 6.22 6.22 0 012.32.924c.362.302.692.64.985 1.01.677.662 1 1.61.87 2.55-.053.33-.14.654-.262.966a7.308 7.308 0 01-2.363 3.134 8.119 8.119 0 01-5.089 1.84zm-8.881-11.22c-.368 2.772 0 4.974 1.14 6.658a9.412 9.412 0 004.769 3.304 7.647 7.647 0 007.615-1.101 6.584 6.584 0 002.123-2.842 4.39 4.39 0 00.233-.824 2.35 2.35 0 00-.707-1.99 5.778 5.778 0 00-.878-.838 5.648 5.648 0 00-2.06-.803 10.397 10.397 0 00-3.538 0c-.623.064-1.274.135-1.882.15a14.598 14.598 0 01-5.662-1.045c-.41-.176-.797-.4-1.153-.668z" fill="#231F20"/><path fill="#FFF" d="M92 5.691h30.049v19.923H92z"/><path d="M122.049 25.977H92a.355.355 0 01-.354-.355V5.684c0-.196.159-.355.354-.355h30.049c.193.004.35.16.353.355v19.938a.362.362 0 01-.353.355zm-29.723-.71h29.397V6.046h-29.37l-.027 19.22z" fill="#D1D3D4"/><path fill="#FFF" d="M92 25.622h30.049v3.943H92z"/><path d="M122.049 29.92H92a.355.355 0 01-.354-.355v-3.943c0-.197.159-.356.354-.356h30.049c.195 0 .353.16.353.356v3.943a.355.355 0 01-.353.355zm-29.723-.71h29.397v-3.233h-29.37l-.027 3.233zM95.44 20.982a.35.35 0 01-.276-.576c.34-.426 8.492-10.466 16.092-9.862 3.03.242 5.096 1.833 5.534 4.263a4.808 4.808 0 01-2.625 5.23c-2.123.987-4.09.973-5.463-.043a4.137 4.137 0 01-1.458-4.078 3.103 3.103 0 012.215-2.842 3.692 3.692 0 013.623 1.03c.43.476.523 1.168.234 1.74-.538 1.045-1.175 1.592-1.897 1.62-1.153 0-2.003-1.314-2.038-1.37a.356.356 0 01.386-.532c.09.023.168.081.215.162.184.291.772 1.066 1.416 1.03.644-.035 1.005-.71 1.288-1.236a.84.84 0 00-.156-.966 2.971 2.971 0 00-2.88-.796 2.429 2.429 0 00-1.706 2.252 3.454 3.454 0 001.175 3.404c1.154.86 2.887.852 4.749 0a4.083 4.083 0 002.194-4.49c-.376-2.083-2.201-3.454-4.89-3.667-7.198-.597-15.379 9.492-15.457 9.599a.36.36 0 01-.276.128zM107.173 44.145H95.595a.355.355 0 01-.354-.355v-9.237c0-.196.159-.355.354-.355h11.578c.195 0 .354.159.354.355v9.237a.355.355 0 01-.354.355zm-11.224-.71h10.87v-8.527H95.95v8.526z" fill="#D1D3D4"/><path d="M101.384 36.237a.355.355 0 01-.354-.355v-2.21a.355.355 0 11.708 0v2.195a.356.356 0 01-.354.37z" fill="#D1D3D4"/></g></g></svg>