<svg width="202" height="202" xmlns="http://www.w3.org/2000/svg"><g fill="none" fill-rule="evenodd"><circle opacity=".203" transform="matrix(-1 0 0 1 202 0)" cx="101" cy="101" r="101"/><g fill-rule="nonzero"><path d="M163.347 100.866h14.536s9.538 19.67 11.416 28.098h-25.952v-28.098z" fill="#E7816B"/><path d="M189.3 129.231h-25.953a.268.268 0 01-.269-.267v-28.098c0-.147.12-.267.269-.267h14.536a.257.257 0 01.24.151c.099.198 9.572 19.763 11.439 28.156a.284.284 0 01-.053.227.269.269 0 01-.21.098zm-25.668-.529h25.335c-1.925-8.079-10.378-25.755-11.253-27.574h-14.099l.017 27.574z" fill="#231F20"/><path d="M164.32 122.477l11.347 5.016s-9.975-43.012-29.459-62.426c0 0-6.807 5.232-11.719 18.804-1.248 3.447-.186 1.278-.268 1.86l-1.324 9.375 31.424 27.371z" fill="#E7816B"/><path d="M175.667 127.76a.34.34 0 01-.105 0l-11.37-5.021a.152.152 0 01-.064-.04l-31.424-27.4a.261.261 0 01-.093-.24l1.283-8.887a.333.333 0 01-.14-.046c-.221-.134-.291-.174.484-2.325 4.883-13.485 11.737-18.867 11.807-18.92.1-.089.25-.089.35 0 19.314 19.269 29.435 62.124 29.534 62.554a.261.261 0 01-.087.262.28.28 0 01-.175.064zm-11.2-5.51l10.832 4.784c-1.213-4.94-11.147-43.524-29.09-61.612-1.109.941-7.07 6.394-11.452 18.53-.25.692-.396 1.163-.484 1.407h.07a.33.33 0 01.158.383l-1.324 9.201 31.29 27.308z" fill="#231F20"/><path d="M134.775 91.566s3.11-14.659 11.567-22.82c0 0 13.032 11.044 25.632 55.266l-40.961-2.273s.804-22.477 3.762-30.173z" fill="#231F20"/><path d="M171.974 124.302l-40.961-2.272a.291.291 0 01-.275-.302c.035-.919.84-22.576 3.774-30.225.146-.663 3.372-14.962 11.667-22.942a.287.287 0 01.391 0c.134.11 13.242 11.584 25.725 55.41a.284.284 0 01-.052.262.28.28 0 01-.269.07zm-40.64-2.836l40.25 2.238c-6.458-22.559-13.003-36.218-17.372-43.716-4.084-7.039-7.094-10.108-7.864-10.84-8.166 8.044-11.258 22.331-11.287 22.477v.046c-2.736 7.097-3.64 27.162-3.728 29.795z" fill="#231F20"/><path d="M120.99 104.214s6.86-14.27 15.378-22.552c0 0 10.75 8.405 17.75 17.403 7 8.997 13.417 24.947 13.417 24.947h-45.92l-.624-19.798z" fill="#FFF"/><path d="M167.54 124.302h-45.925a.291.291 0 01-.292-.279l-.624-19.803a.342.342 0 010-.133c.07-.14 7-14.41 15.435-22.634a.292.292 0 01.385 0c.105.087 10.862 8.532 17.803 17.437 6.942 8.905 13.417 24.854 13.464 24.994a.29.29 0 01-.274.395l.029.023zm-45.645-.58h45.214c-1.056-2.53-7-16.45-13.218-24.477-6.376-8.196-15.995-15.996-17.5-17.2-8.01 7.9-14.584 21.199-15.103 22.233l.607 19.443z" fill="#231F20"/><path d="M136.25 84.504s-9.274 8.719-12.675 20.646c0 0 39.79 14.003 39.433 13.654-.356-.349-5.909-12.91-12.25-20.263-8.966-10.41-14.507-14.037-14.507-14.037z" fill="#231F20"/><path d="M163.078 119.054c-.583 0-3.418-.97-19.926-6.731-9.847-3.441-19.676-6.9-19.676-6.9a.285.285 0 01-.181-.354c3.383-11.87 12.658-20.687 12.752-20.774a.292.292 0 01.361-.03c.059.036 5.682 3.738 14.584 14.085 5.051 5.876 9.526 14.874 11.439 18.716.385.779.717 1.447.793 1.546.093.094.105.24.03.349-.024.052-.053.093-.176.093zm-39.147-14.067c12.25 4.32 34.457 12.096 38.5 13.37l-.508-1.012c-1.901-3.825-6.352-12.788-11.357-18.6-7.928-9.213-13.224-13.113-14.274-13.845-1.266 1.22-9.217 9.363-12.361 20.087z" fill="#231F20"/><path d="M126.743 92.002s18.748 2.854 29.924 15.619c5.706 6.521 10.874 16.39 10.874 16.39H144.68l-17.938-32.009z" fill="#E7816B"/><path d="M167.54 124.28h-22.86a.269.269 0 01-.233-.135l-17.938-32.009a.29.29 0 010-.285.28.28 0 01.263-.11c.186 0 18.975 3.017 30.082 15.694 5.664 6.469 10.862 16.344 10.914 16.443a.26.26 0 010 .262.257.257 0 01-.227.14zm-22.702-.53h22.26c-1.021-1.889-5.647-10.259-10.635-15.955-9.916-11.329-26.051-14.84-29.213-15.432l17.588 31.387z" fill="#231F20"/><path d="M116.593 105.168c4.083-6.01 6.416-9.818 10.15-13.166a95.807 95.807 0 0119.098 14.846 73.494 73.494 0 0112.57 17.164h-51.035s5.436-13.3 9.216-18.844z" fill="#FFF"/><path d="M158.412 124.302h-51.036a.287.287 0 01-.24-.127.272.272 0 01-.028-.268c.052-.133 5.489-13.398 9.245-18.902.63-.924 1.214-1.796 1.75-2.621 3.022-4.494 5.21-7.743 8.424-10.597a.28.28 0 01.332-.035 96.653 96.653 0 0119.163 14.886 74.674 74.674 0 0112.629 17.246.307.307 0 010 .285.28.28 0 01-.24.133zm-50.599-.58h50.12a74.77 74.77 0 00-12.296-16.671 97.066 97.066 0 00-18.854-14.688c-3.074 2.772-5.22 5.958-8.166 10.346l-1.78 2.621c-3.36 4.918-8.085 16.136-9.024 18.391z" fill="#231F20"/><path d="M109.237 124.012s3.96-9.742 8.884-17.496c5.01-7.887 8.884-11.66 8.884-11.66s5.874 2.779 15.58 12.282c6.633 6.493 12.793 16.856 12.793 16.856l-46.141.018z" fill="#231F20"/><path d="M155.378 124.302h-46.141a.298.298 0 01-.245-.127.272.272 0 010-.268c.035-.099 4.025-9.881 8.907-17.548 4.97-7.823 8.89-11.671 8.925-11.712a.304.304 0 01.333-.052c.058 0 6.031 2.906 15.656 12.334 6.586 6.446 12.775 16.856 12.834 16.938a.29.29 0 010 .29.28.28 0 01-.269.145zm-45.704-.58h45.185c-1.248-2.041-6.72-10.742-12.477-16.375-8.61-8.434-14.251-11.578-15.319-12.136-.752.767-4.305 4.545-8.697 11.462-4.293 6.76-7.893 15.17-8.692 17.048z" fill="#231F20"/><path d="M127.833 127.493h-59.61s-2.841-25.574-1.435-42.43c1.405-16.857 10.15-29.4 10.15-29.4s22.108 5.417 35.402 26.69c13.294 21.274 15.493 45.14 15.493 45.14z" fill="#FFF"/><path d="M127.833 127.784h-59.61a.285.285 0 01-.286-.256c0-.255-2.83-25.819-1.441-42.518 1.388-16.7 10.115-29.429 10.202-29.54a.275.275 0 01.31-.115c.221.052 22.376 5.69 35.583 26.818 13.207 21.129 15.528 45.059 15.552 45.297a.278.278 0 01-.076.221.275.275 0 01-.234.093zm-59.365-.581h59.062c-.327-2.906-3.144-25.058-15.435-44.722-12.413-19.867-32.813-25.906-35.012-26.51-1.026 1.546-8.685 13.549-9.992 29.062-1.324 15.77 1.102 39.438 1.394 42.17h-.017z" fill="#231F20"/><path d="M127.833 127.493H109.75s-2.205-23.08-11.083-43.558c-8.879-20.478-21.712-28.301-21.712-28.301s22.108 5.417 35.403 26.69c13.294 21.274 15.475 45.17 15.475 45.17z" fill="#E7816B"/><path d="M127.833 127.76H109.75a.268.268 0 01-.263-.237c0-.233-2.304-23.28-11.054-43.478S76.955 55.935 76.85 55.86a.267.267 0 01-.105-.325.263.263 0 01.31-.157c.22.052 22.364 5.684 35.582 26.807 13.219 21.123 15.529 45.047 15.552 45.285a.267.267 0 01-.268.29h-.088zm-17.89-.528h17.599c-.31-2.79-3.11-25.035-15.447-44.756-11.048-17.682-28.42-24.413-33.682-26.11 3.553 2.65 13.353 11.044 20.464 27.476 8.318 19.158 10.82 40.873 11.083 43.39h-.017z" fill="#231F20"/><path d="M107.376 127.493s-3.769-24.482-8.71-37.618c-7.256-19.181-21-30.19-21-30.19s-5.833 11.009-7.145 20.088c-.852 5.998-1.552 35.81.058 47.453l36.797.267z" fill="#231F20"/><path d="M107.376 127.784l-36.797-.267a.291.291 0 01-.286-.25c-1.616-11.66-.886-41.716-.064-47.535 1.29-9.038 7.111-20.082 7.17-20.17a.286.286 0 01.198-.144.269.269 0 01.239.058c.14.11 13.883 11.264 21.087 30.312 4.912 12.997 8.704 37.415 8.75 37.659a.29.29 0 01-.07.238.287.287 0 01-.227.1zm-36.54-.849l36.201.268c-.478-3-4.083-25.104-8.662-37.2a77.451 77.451 0 00-20.627-29.836c-.962 1.866-5.792 11.573-6.936 19.658-.822 5.749-1.54 35.323.024 47.11z" fill="#231F20"/><path d="M62.5 75.704s12.21 2.11 26.127 11.788c23.655 16.45 31.874 40.002 31.874 40.002H58.627s2.123-44.966 3.873-51.79z" fill="#E7816B"/><path d="M120.518 127.76H58.627a.275.275 0 01-.21-.104.293.293 0 01-.076-.197c.087-1.837 2.17-45.07 3.902-51.842a.274.274 0 01.31-.198c.122 0 12.425 2.227 26.25 11.835 23.455 16.31 31.885 39.89 31.972 40.106a.272.272 0 01-.257.354v.047zm-61.611-.534h61.25c-1.167-3-9.917-24.412-31.64-39.525-12.641-8.788-23.987-11.334-25.778-11.695-1.656 7.179-3.651 47.46-3.832 51.22z" fill="#231F20"/><path d="M101.064 127.493s-1.61-12.845-12.489-27.167C77.695 86.004 62.5 75.704 62.5 75.704s-6.516 9.102-8.937 19.943c-2.42 10.84-.583 31.846-.583 31.846h48.084z" fill="#FFF"/><path d="M101.064 127.784H52.986a.297.297 0 01-.292-.267c0-.21-1.79-21.175.584-31.934 2.374-10.76 8.913-19.954 8.977-20.047a.292.292 0 01.402-.07C62.81 75.57 78 85.963 88.78 100.152c10.78 14.188 12.53 27.179 12.548 27.318a.296.296 0 01-.07.227.292.292 0 01-.193.087zm-47.833-.581h47.471c-.344-2.087-2.63-13.869-12.384-26.697-9.98-13.148-23.77-23.017-25.748-24.412-1.02 1.5-6.557 9.88-8.75 19.6-2.182 10.032-.764 29.056-.566 31.509h-.023z" fill="#231F20"/><path d="M98.264 125.756S95.05 112.596 82.06 97.1a101.135 101.135 0 00-18.818-17.327s-6.026 7.91-7.537 17.949c-1.236 8.236-1.505 23-1.563 28.034h44.123z" fill="#231F20"/><path d="M98.264 126.046H54.141a.298.298 0 01-.292-.296c.064-5.737.35-19.96 1.57-28.075 1.504-9.991 7.53-18.018 7.583-18.082a.287.287 0 01.39-.064A102.527 102.527 0 0182.27 96.914c12.886 15.368 16.234 28.638 16.263 28.772a.278.278 0 01-.052.25.286.286 0 01-.216.11zm-43.826-.581H97.88c-.624-2.215-4.433-14.328-16.041-28.18A103.032 103.032 0 0063.31 80.169c-.974 1.36-5.974 8.678-7.315 17.595-1.196 7.94-1.488 21.796-1.558 27.702z" fill="#231F20"/><path d="M94.752 127.493c-.583-2.284-3.015-10.148-10.5-21.477-8.965-13.549-21.256-17.565-21.256-17.565h-24.18v.907l16.52 38.135h39.416z" fill="#E7816B"/><path d="M94.752 127.761H55.337a.263.263 0 01-.245-.163L38.583 89.462a.33.33 0 010-.104v-.907c0-.145.117-.264.263-.267h24.173a.234.234 0 01.088 0c.122.04 12.477 4.196 21.39 17.67 7.543 11.404 9.975 19.378 10.541 21.558a.25.25 0 01-.046.227.275.275 0 01-.24.122zm-39.252-.535h38.89c-.7-2.552-3.225-10.247-10.383-21.064-8.551-12.933-20.3-17.176-21.07-17.438H39.085v.581L55.5 127.226z" fill="#231F20"/><path d="M82.06 127.493c-3.267-5.65-18.393-29.852-43.243-39.042 0 0-7.77 16.571-5.56 39.043H82.06z" fill="#FFF"/><path d="M82.06 127.784H33.256a.297.297 0 01-.291-.261c-2.194-22.291 5.512-39.026 5.588-39.194a.292.292 0 01.368-.151c25.135 9.3 40.553 34.294 43.388 39.17a.29.29 0 01-.25.436zm-48.534-.581h48.026c-3.384-5.743-18.445-29.324-42.584-38.363-.927 2.11-7.385 17.827-5.442 38.363z" fill="#231F20"/><path d="M79.084 127.493c-1.499-2.801-7-10.712-13.492-17.92-12.198-13.496-25.778-17.92-25.778-17.92-6.306 17.334-4.037 30.528-3.914 35.84h43.184z" fill="#231F20"/><path d="M79.084 127.784H35.918a.286.286 0 01-.292-.285c0-.808-.088-1.819-.17-2.981-.443-6.394-1.26-18.234 4.084-32.963a.298.298 0 01.362-.18c.14.046 13.795 4.603 25.905 18.018 6.767 7.487 12.157 15.404 13.534 17.973a.29.29 0 01-.257.43v-.012zm-42.904-.581h42.408c-1.674-2.906-6.819-10.358-13.212-17.438-11.084-12.247-23.427-17.036-25.387-17.74-5.209 14.485-4.404 26.157-3.966 32.452.07 1.04.134 1.959.157 2.726z" fill="#231F20"/><path fill="#FFF" d="M181.657 127.493l-2.794-5.626H88.377l-2.777 5.626H28.58v19.873h162.597v-19.873z"/><path d="M191.178 147.657H28.579a.291.291 0 01-.291-.29v-19.873c0-.161.13-.291.291-.291h56.84l2.695-5.464c.05-.1.151-.163.263-.163h90.486a.298.298 0 01.263.163l2.712 5.464h9.334c.16 0 .291.13.291.29v19.873a.291.291 0 01-.285.291zm-162.307-.581h162.015v-19.292h-9.228a.298.298 0 01-.263-.163l-2.713-5.463H88.559l-2.696 5.463a.298.298 0 01-.262.163H28.87v19.292z" fill="#231F20"/><path fill="#D1D3D4" d="M68.222 127.493h32.842v19.867H68.222z"/><path d="M101.064 147.657H68.223a.291.291 0 01-.292-.29v-19.873a.297.297 0 01.291-.291h32.842c.161 0 .292.13.292.29v19.873c0 .16-.13.291-.292.291zm-32.55-.581h32.259v-19.292H68.514v19.292z" fill="#231F20"/><path fill="#D1D3D4" d="M152.502 128.964l21.689 18.402h-21.689z"/><path d="M174.19 147.657h-21.688a.291.291 0 01-.291-.29v-18.403c0-.113.066-.215.169-.261a.298.298 0 01.31.04l21.688 18.403a.29.29 0 01-.187.511zm-21.396-.581h20.603l-20.603-17.478v17.478z" fill="#231F20"/><path fill="#FFF" d="M23.883 131.103h44.339v2H23.883z"/><path d="M68.222 133.393H23.89a.297.297 0 01-.291-.29v-2c0-.16.13-.29.291-.29h44.333c.162 0 .292.13.292.29v2a.29.29 0 01-.291.29zm-44.047-.581h43.75v-1.418h-43.75v1.418z" fill="#231F20"/><path fill="#FFF" d="M19.602 136.177h48.627v3.522H19.602z"/><path d="M68.222 139.985h-48.62a.291.291 0 01-.292-.291v-3.517c0-.16.13-.29.292-.29h48.62c.162 0 .292.13.292.29v3.517c0 .16-.13.29-.291.29zm-48.329-.582h48.038v-2.935H19.917l-.024 2.935z" fill="#231F20"/><path fill="#E7816B" d="M19.602 138.276h48.627v4.388H19.602z"/><path d="M68.222 142.926h-48.62a.263.263 0 01-.269-.262v-4.388c0-.148.12-.268.269-.268h48.62c.149 0 .269.12.269.268v4.388a.261.261 0 01-.269.262zm-48.358-.53H67.96v-3.853H19.864v3.854z" fill="#231F20"/><path fill="#E7816B" d="M23.883 133.103h44.339v3.075H23.883z"/><path d="M68.222 136.439H23.89a.262.262 0 01-.262-.262v-3.074a.261.261 0 01.262-.268h44.334a.263.263 0 01.268.268v3.074a.261.261 0 01-.269.262zm-44.07-.529H67.96v-2.546H24.152v2.546z" fill="#231F20"/><path fill="#E7816B" d="M28.579 129.307h39.649v1.796H28.579z"/><path d="M68.222 131.37H28.556a.268.268 0 01-.268-.267v-1.796a.267.267 0 01.268-.267h39.666a.269.269 0 01.269.267v1.796c0 .148-.12.267-.268.267zm-39.38-.534H67.96v-1.262H28.842v1.262z" fill="#231F20"/><path fill="#D1D3D4" d="M85.6 127.493h25.76l2.38-5.626H88.377z"/><path d="M111.36 127.784H85.6a.304.304 0 01-.25-.14.278.278 0 010-.278l2.776-5.627c.049-.1.15-.163.262-.163h25.364c.099 0 .191.05.245.134a.284.284 0 010 .273l-2.38 5.62a.292.292 0 01-.257.181zm-25.293-.581h25.083l2.135-5.045H88.558l-2.491 5.045z" fill="#231F20"/><path fill="#E7816B" d="M119.305 124.884h38.483v1.738h-38.483zM169.997 133.585h16.188v1.273h-16.188z"/><path fill="#FFF" d="M10.823 141.06h57.406v6.307H10.823z"/><path d="M68.222 147.657h-57.4a.291.291 0 01-.291-.29v-6.307c0-.16.13-.29.291-.29h57.4c.162 0 .292.13.292.29v6.306c0 .16-.13.291-.291.291zm-57.108-.581h56.817v-5.726H11.114v5.726zM181.657 129.231h-29.166a.267.267 0 110-.529h29.167a.267.267 0 110 .529z" fill="#231F20"/></g></g></svg>