<svg width="202" height="202" xmlns="http://www.w3.org/2000/svg"><g fill="none" fill-rule="evenodd"><circle opacity=".203" transform="matrix(0 -1 -1 0 202 202)" cx="101" cy="101" r="101"/><g transform="translate(10 30)" fill-rule="nonzero"><path fill="#FFF" d="M116.43 142.025H69.2V76.97h47.23z"/><path d="M116.435 142.359H69.211a.32.32 0 01-.32-.32V76.95a.32.32 0 01.32-.321h47.23a.32.32 0 01.321.32v65.075a.322.322 0 01-.327.334zm-46.91-.642h46.59V77.291h-46.59v64.426z" fill="#231F20"/><path d="M114.34 84.594H71.294a.32.32 0 01-.32-.32.327.327 0 01.32-.32h43.046a.32.32 0 010 .64zM114.34 91.7H71.294a.327.327 0 01-.32-.321.32.32 0 01.32-.32h43.046a.32.32 0 010 .64zM114.34 98.798H71.294a.327.327 0 01-.32-.32.32.32 0 01.32-.321h43.046a.32.32 0 010 .641zM114.34 105.897H71.294a.32.32 0 010-.641h43.046a.32.32 0 010 .641zM114.34 112.996H71.294a.32.32 0 01-.32-.321.327.327 0 01.32-.32h43.046a.32.32 0 010 .64zM114.34 120.1H71.294a.327.327 0 01-.32-.32.32.32 0 01.32-.32h43.046a.32.32 0 010 .64zM114.34 127.2H71.294a.327.327 0 01-.32-.321.32.32 0 01.32-.32h43.046a.32.32 0 010 .64zM114.34 134.298H71.294a.32.32 0 010-.641h43.046a.32.32 0 010 .641z" fill="#D1D3D4"/><path fill="#231F20" d="M116.435 76.963H76.228v-3.758h40.207z"/><path d="M116.435 77.29H76.222a.327.327 0 01-.32-.32v-3.758a.32.32 0 01.32-.32h40.213a.32.32 0 01.32.32v3.739a.328.328 0 01-.32.34zm-39.892-.64h39.572v-3.117H76.543v3.116z" fill="#231F20"/><path fill="#FFF" d="M46.968 93.752h13.157v48.267H46.968z"/><path d="M60.124 142.359H46.968a.32.32 0 01-.32-.32V93.751a.327.327 0 01.32-.321h13.156a.32.32 0 01.32.32v48.268a.32.32 0 01-.32.34zm-12.817-.642h12.516V94.072H47.288l.02 47.645z" fill="#231F20"/><path fill="#FFF" d="M21.673 87.608h25.73v54.417h-25.73z"/><path d="M47.423 142.359h-25.75a.32.32 0 01-.32-.32v-54.43a.32.32 0 01.32-.321h25.75a.32.32 0 01.32.32v54.417a.322.322 0 01-.32.334zm-25.41-.642h25.09V87.93h-25.11l.02 53.788z" fill="#231F20"/><path d="M46.263 94.04H22.814a.32.32 0 010-.641h23.449a.32.32 0 010 .641zM46.263 99.985H22.814a.32.32 0 010-.642h23.449a.32.32 0 010 .642zM46.263 105.923H22.814a.32.32 0 010-.642h23.449a.32.32 0 010 .642zM46.263 111.86H22.814a.32.32 0 010-.64h23.449a.32.32 0 010 .64zM46.263 117.799H22.814a.32.32 0 010-.642h23.449a.32.32 0 010 .642zM46.263 123.762H22.814a.32.32 0 010-.64h23.449a.32.32 0 010 .64zM46.263 129.675H22.814a.32.32 0 010-.642h23.449a.32.32 0 010 .642zM46.263 135.613H22.814a.32.32 0 010-.642h23.449a.32.32 0 010 .642z" fill="#D1D3D4"/><path fill="#231F20" d="M21.673 84.466h21.904v3.142H21.673z"/><path d="M43.577 87.929H21.673a.32.32 0 01-.32-.32v-3.143a.32.32 0 01.32-.32h21.904a.32.32 0 01.32.32v3.142a.32.32 0 01-.32.321zm-21.583-.641h21.263v-2.501H21.994v2.5z" fill="#231F20"/><path fill="#D1D3D4" d="M54.683 98.035h2.422v1h-2.422zM50.435 105.05h2.422v1h-2.422zM53.459 111.713h2.422v1h-2.422z"/><path d="M83.515 127.417c-5.954-9.522-21.11-16.294-38.867-16.294-17.758 0-32.908 6.772-38.88 16.294h77.747z" fill="#E7816B"/><path d="M83.515 127.712H5.768a.295.295 0 01-.257-.147.295.295 0 010-.301c6.146-9.83 21.866-16.436 39.092-16.436s32.971 6.605 39.091 16.436a.314.314 0 01-.18.448zm-77.196-.583h76.658c-6.236-9.42-21.54-15.71-38.33-15.71s-32.086 6.29-38.328 15.71z" fill="#231F20"/><path fill="#231F20" d="M82.182 132.535H9.062l-3.173-5.265h77.523z"/><path d="M82.182 132.855H9.062a.32.32 0 01-.276-.154l-3.172-5.264a.334.334 0 010-.327.314.314 0 01.275-.16h77.543a.314.314 0 01.314.391l-1.224 5.264a.32.32 0 01-.34.25zm-72.941-.64h72.685l1.076-4.624H6.46l2.781 4.623z" fill="#231F20"/><path fill="#231F20" d="M7.318 132.535h76.088v9.491H7.318z"/><path d="M83.406 142.359H7.318a.32.32 0 01-.32-.32v-9.491a.32.32 0 01.32-.321h76.088a.32.32 0 01.32.32v9.491a.32.32 0 01-.32.32zm-75.767-.642h75.447v-8.849H7.639v8.85z" fill="#231F20"/><path d="M77.58 128.514c-4.921-7.875-17.45-13.466-32.125-13.466s-27.21 5.598-32.132 13.466h64.258z" fill="#E7816B"/><path d="M77.58 128.803H13.324a.289.289 0 01-.25-.443c5.089-8.144 18.104-13.614 32.382-13.614 14.278 0 27.287 5.47 32.376 13.614a.295.295 0 01-.25.443zm-63.719-.552h63.181c-5.178-7.695-17.77-12.883-31.587-12.883-13.816 0-26.415 5.124-31.594 12.883z" fill="#231F20"/><path d="M68.942 128.835h-46.98a.333.333 0 01-.27-.148.327.327 0 010-.308c3.737-8.17 13.292-13.658 23.782-13.658 10.491 0 20.04 5.489 23.776 13.658a.327.327 0 010 .308.333.333 0 01-.308.148zm-46.474-.642h45.968c-3.775-7.695-12.939-12.825-22.98-12.825-10.043 0-19.181 5.13-22.988 12.825z" fill="#231F20"/><path d="M59.08 128.835H31.824a.333.333 0 01-.256-.129.32.32 0 01-.051-.275c2.172-8.202 7.773-13.71 13.938-13.71 6.165 0 11.76 5.508 13.932 13.71a.32.32 0 01-.051.275.333.333 0 01-.256.129zm-26.84-.642h26.423c-2.173-7.695-7.447-12.825-13.208-12.825s-11.042 5.13-13.214 12.825z" fill="#231F20"/><path d="M49.512 128.835h-8.12a.333.333 0 01-.237-.103.34.34 0 01-.083-.244c.525-6.656 1.922-13.767 4.383-13.767 2.461 0 3.845 7.111 4.377 13.767a.34.34 0 01-.083.244.333.333 0 01-.237.103zm-7.774-.642h7.428c-.705-8.426-2.39-12.825-3.71-12.825-1.321 0-3.013 4.4-3.718 12.825z" fill="#231F20"/><path fill="#FFF" d="M76.478 132.74H14.425l-1.012-4.354H77.49z"/><path d="M76.478 133.06H14.425a.32.32 0 01-.314-.25l-1.012-4.347a.327.327 0 01.064-.276.308.308 0 01.25-.122h64.084c.1 0 .194.044.257.122.06.078.08.18.057.276L76.8 132.81a.32.32 0 01-.32.25zm-61.796-.64h61.52l.866-3.714H13.817l.865 3.713z" fill="#231F20"/><path fill="#E7816B" d="M13.413 132.74h64.085v9.285H13.413z"/><path d="M77.491 142.32H13.406a.295.295 0 01-.294-.295v-9.285c0-.163.132-.295.294-.295h64.085c.163 0 .295.132.295.295v9.285a.295.295 0 01-.295.295zm-63.79-.603h63.502v-8.682H13.7v8.682z" fill="#231F20"/><path d="M77.08 130.887H15.618a.32.32 0 010-.642h61.464a.32.32 0 010 .642z" fill="#D1D3D4"/><path fill="#231F20" d="M15.912 135.35h12.176v6.675H15.912z"/><path d="M28.095 142.359H15.919a.32.32 0 01-.32-.32v-6.69a.327.327 0 01.32-.32h12.176a.327.327 0 01.32.32v6.676a.32.32 0 01-.32.334zm-11.862-.642h11.535v-6.034H16.233v6.034z" fill="#231F20"/><path d="M19.027 142.359a.32.32 0 01-.32-.32v-6.69a.32.32 0 11.64 0v6.676a.32.32 0 01-.32.334zM22.007 142.359a.32.32 0 01-.32-.32v-6.69a.32.32 0 01.32-.32.327.327 0 01.32.32v6.676a.32.32 0 01-.32.334zM24.993 142.359a.32.32 0 01-.32-.32v-6.69a.327.327 0 01.32-.32.32.32 0 01.32.32v6.676a.32.32 0 01-.32.334z" fill="#FFF"/><path fill="#231F20" d="M31.549 135.35h12.176v6.675H31.549z"/><path d="M43.725 142.359H31.549a.32.32 0 01-.32-.32v-6.69a.32.32 0 01.32-.32h12.176a.32.32 0 01.32.32v6.676a.32.32 0 01-.32.334zm-11.856-.642h11.535v-6.034H31.87v6.034z" fill="#231F20"/><path d="M34.657 142.359a.32.32 0 01-.32-.32v-6.69a.327.327 0 01.32-.32.32.32 0 01.32.32v6.676a.32.32 0 01-.32.334zM37.637 142.359a.32.32 0 01-.32-.32v-6.69a.32.32 0 11.64 0v6.676a.32.32 0 01-.32.334zM40.617 142.359a.32.32 0 01-.32-.32v-6.69a.32.32 0 01.32-.32.327.327 0 01.32.32v6.676a.32.32 0 01-.32.334z" fill="#FFF"/><path fill="#231F20" d="M47.179 135.35h12.176v6.675H47.179z"/><path d="M59.355 142.359H47.18a.32.32 0 01-.32-.32v-6.69a.32.32 0 01.32-.32h12.176a.32.32 0 01.32.32v6.676a.32.32 0 01-.32.334zm-11.856-.642h11.536v-6.034H47.499v6.034z" fill="#231F20"/><path d="M50.294 142.359a.32.32 0 01-.32-.32v-6.69a.32.32 0 01.32-.32.327.327 0 01.32.32v6.676a.32.32 0 01-.32.334zM53.267 142.359a.32.32 0 01-.32-.32v-6.69a.327.327 0 01.32-.32.32.32 0 01.32.32v6.676a.32.32 0 01-.32.334zM56.247 142.359a.32.32 0 01-.32-.32v-6.69a.32.32 0 01.32-.32.327.327 0 01.32.32v6.676a.32.32 0 01-.32.334z" fill="#FFF"/><path fill="#231F20" d="M62.809 135.35h12.176v6.675H62.809z"/><path d="M74.979 142.359H62.803a.32.32 0 01-.32-.32v-6.69a.327.327 0 01.32-.32h12.176a.327.327 0 01.32.32v6.676a.32.32 0 01-.32.334zm-11.862-.642h11.535v-6.034H63.117v6.034z" fill="#231F20"/><path d="M65.924 142.359a.32.32 0 01-.32-.32v-6.69a.32.32 0 01.32-.32.327.327 0 01.32.32v6.676a.32.32 0 01-.32.334zM68.897 142.359a.32.32 0 01-.32-.32v-6.69a.327.327 0 01.32-.32.32.32 0 01.32.32v6.676a.32.32 0 01-.32.334zM71.877 142.359a.32.32 0 01-.32-.32v-6.69a.32.32 0 11.64 0v6.676a.32.32 0 01-.32.334z" fill="#FFF"/><path d="M85.553 6.836a.32.32 0 01-.32-.32V.91a.32.32 0 01.32-.321.327.327 0 01.32.32v5.605a.327.327 0 01-.32.32z" fill="#231F20"/><path fill="#E7816B" d="M82.945 33.916h5.216v3.61h-5.216z"/><path d="M88.161 37.834h-5.216a.301.301 0 01-.295-.295v-3.623a.295.295 0 01.295-.289h5.216c.16 0 .288.13.288.289v3.61a.295.295 0 01-.288.308zm-4.922-.59h4.627v-3.033H83.24v3.033z" fill="#231F20"/><path fill="#FFF" d="M81.919 31.588h7.267v2.334h-7.267z"/><path d="M89.186 34.237H81.92a.32.32 0 01-.32-.321v-2.328a.32.32 0 01.32-.32h7.267a.32.32 0 01.32.32v2.328a.32.32 0 01-.32.32zm-6.946-.642h6.626V31.91H82.24v1.686z" fill="#231F20"/><path fill="#E7816B" d="M84.15 11.427h2.806l.564 20.161h-3.935z"/><path d="M87.52 31.877h-3.935a.275.275 0 01-.211-.084.295.295 0 01-.083-.211l.564-20.161a.295.295 0 01.294-.289h2.807c.16 0 .292.128.295.289l.545 20.16a.327.327 0 01-.084.212.295.295 0 01-.192.084zm-3.633-.584h3.332l-.551-19.57H84.43l-.544 19.57z" fill="#231F20"/><path d="M88.469 19.988c0 .385-.308.737-.814.994h-4.21c-.507-.257-.814-.61-.814-.994.05-.421.325-.782.717-.943h4.448c.373.175.629.533.673.943z" fill="#FFF"/><path d="M87.655 21.303h-4.21a.269.269 0 01-.142 0 1.532 1.532 0 01-.993-1.283 1.481 1.481 0 01.878-1.225.327.327 0 01.16-.038h4.41a.327.327 0 01.16.038c.49.22.825.689.871 1.225a1.532 1.532 0 01-.987 1.283.295.295 0 01-.147 0zm-4.127-.642h4.05c.365-.199.57-.442.57-.641s-.173-.43-.474-.641h-4.242c-.205.128-.481.346-.481.641 0 .295.211.442.577.641zM84.566 5.99h1.974l.115 5.437h-2.204z" fill="#231F20"/><path d="M86.655 11.748h-2.204a.327.327 0 01-.231-.096.32.32 0 01-.09-.231l.115-5.438a.314.314 0 01.32-.314h1.95a.314.314 0 01.32.314l.115 5.438a.346.346 0 01-.09.23.352.352 0 01-.205.097zm-1.878-.641h1.551l-.102-4.797H84.88l-.103 4.797z" fill="#231F20"/><path d="M78.862 37.379h13.375c.605 0 1.096.49 1.096 1.096v1.77h-15.56v-1.77c0-.603.487-1.093 1.09-1.096z" fill="#FFF"/><path d="M93.333 40.566h-15.56a.32.32 0 01-.32-.32v-1.77c0-.78.63-1.414 1.41-1.418h13.374c.782 0 1.416.635 1.416 1.417v1.77a.32.32 0 01-.32.32zm-15.24-.641h14.92v-1.45a.776.776 0 00-.776-.776H78.862a.776.776 0 00-.769.776v1.45zM82.361 51.518h6.383v90.507h-6.383z" fill="#231F20"/><path d="M88.744 142.359h-6.408a.32.32 0 01-.32-.32v-90.52a.32.32 0 01.32-.321h6.408a.327.327 0 01.32.32v90.507a.32.32 0 01-.32.334zm-6.075-.642h5.768V51.84h-5.768v89.878z" fill="#231F20"/><path d="M87.885 54.346h-4.671a.32.32 0 01-.32-.32.327.327 0 01.32-.32h4.671a.32.32 0 010 .64zM87.911 55.79h-4.716a.32.32 0 010-.642h4.716a.32.32 0 010 .641zM87.93 57.303H83.17a.327.327 0 01-.32-.321.32.32 0 01.32-.32h4.761a.32.32 0 010 .64zM87.956 58.822H83.15a.32.32 0 010-.64h4.806a.32.32 0 010 .64zM87.982 60.374h-4.858a.32.32 0 010-.641h4.858a.32.32 0 010 .641zM88.007 61.952h-4.909a.32.32 0 010-.642h4.91a.327.327 0 01.32.321.32.32 0 01-.32.32zM88.033 63.568h-4.96a.32.32 0 010-.642h4.96a.32.32 0 010 .642zM88.059 65.216h-5.012a.32.32 0 010-.642h5.012a.32.32 0 010 .642zM88.084 66.896h-5.063a.32.32 0 010-.641h5.063a.327.327 0 01.32.32.32.32 0 01-.32.32zM88.11 68.614h-5.127a.32.32 0 010-.64h5.127a.32.32 0 010 .64zM88.135 70.365H82.97a.32.32 0 010-.641h5.165a.32.32 0 010 .641zM88.161 72.16h-5.223a.327.327 0 01-.32-.32.32.32 0 01.32-.32h5.223a.32.32 0 010 .64zM88.193 73.988h-5.28a.32.32 0 010-.641h5.28a.327.327 0 01.32.32.32.32 0 01-.32.321zM88.219 75.86H82.88a.327.327 0 01-.32-.32.32.32 0 01.32-.32h5.339a.32.32 0 010 .64zM88.25 77.771h-5.395a.32.32 0 010-.64h5.396a.32.32 0 010 .64zM88.283 79.727h-5.46a.32.32 0 010-.64h5.46a.32.32 0 01.32.32.327.327 0 01-.32.32zM88.315 81.728H82.79a.32.32 0 010-.641h5.524a.32.32 0 01.32.32.327.327 0 01-.32.321zM88.34 83.767H82.76a.32.32 0 01-.32-.32.327.327 0 01.32-.321h5.581a.32.32 0 010 .641zM88.379 85.864h-5.652a.32.32 0 010-.641h5.652a.32.32 0 01.32.32.327.327 0 01-.32.321zM88.437 88.006h-5.768a.32.32 0 010-.641h5.768a.32.32 0 01.32.32.327.327 0 01-.32.32zM88.437 90.199h-5.768a.32.32 0 010-.641h5.768a.32.32 0 010 .641zM88.475 92.443h-5.85a.327.327 0 01-.321-.32.32.32 0 01.32-.32h5.851a.32.32 0 010 .64zM88.514 94.74h-5.922a.32.32 0 010-.642h5.922a.32.32 0 010 .641zM82.554 96.458h5.998v1h-5.998zM82.515 98.875h6.075v1h-6.075zM82.477 101.35h6.146v1h-6.146zM82.438 103.89h6.229v1h-6.229zM82.4 106.493h6.306v1H82.4zM82.355 109.167h6.389v1h-6.389zM82.317 111.918h6.479v1h-6.479zM82.272 114.733h6.562v1h-6.562zM82.227 117.632h6.652v1h-6.652zM82.182 120.607h6.748v1h-6.748zM82.131 123.673h6.838v1h-6.838zM82.079 126.821h6.94v1h-6.94zM82.035 130.059h7.036v1h-7.036zM81.983 133.394h7.139v1h-7.139zM81.926 136.831h7.248v1h-7.248z" fill="#FFF"/><path d="M82.669 142.025c2.346-30.222 2.474-90.507 2.474-90.507h-2.615c-3.698 69.73-7.248 86.57-8.523 90.507h8.664z" fill="#E7816B"/><path d="M82.669 142.32h-8.677a.301.301 0 01-.237-.122.295.295 0 01-.039-.262c1.333-4.137 4.839-21.232 8.51-90.418a.295.295 0 01.29-.282h2.614c.08 0 .155.033.211.09a.308.308 0 01.084.205c0 .603-.16 60.637-2.48 90.526a.295.295 0 01-.276.263zm-8.267-.59h7.991c2.199-28.869 2.43-85.3 2.442-89.917h-2.038c-3.57 67.089-6.985 85.14-8.408 89.904l.013.013z" fill="#231F20"/><path d="M97.107 142.025c-1.281-3.943-4.825-20.776-8.523-90.507h-2.615s.135 60.279 2.48 90.507h8.658z" fill="#E7816B"/><path d="M97.107 142.32h-8.67a.289.289 0 01-.289-.275c-2.326-29.89-2.48-89.924-2.48-90.527a.308.308 0 01.083-.205.288.288 0 01.206-.09h2.614c.158 0 .288.125.295.283 3.672 69.198 7.171 86.293 8.51 90.417a.295.295 0 01-.044.263.282.282 0 01-.225.134zm-8.388-.603h7.99c-1.415-4.777-4.837-22.828-8.4-89.916h-2.045c.013 4.63.25 61.06 2.455 89.916z" fill="#231F20"/><path d="M77.773 48.652h15.56v1.77c0 .606-.491 1.096-1.096 1.096H78.862c-.605 0-1.095-.49-1.095-1.096v-1.77h.006z" fill="#FFF"/><path d="M92.237 51.84H78.862a1.417 1.417 0 01-1.41-1.418v-1.77a.32.32 0 01.321-.32h15.56a.32.32 0 01.32.32v1.77c0 .783-.634 1.417-1.416 1.417zm-14.144-2.867v1.449c0 .426.344.772.77.776h13.374a.776.776 0 00.775-.776v-1.45H78.093z" fill="#231F20"/><rect fill="#E7816B" x="75.671" y="38.815" width="19.757" height="10.818" rx="3.18"/><path d="M93.39 49.922H77.715a2.333 2.333 0 01-2.332-2.334v-6.734a2.333 2.333 0 012.332-2.334H93.39a2.333 2.333 0 012.333 2.334v6.734a2.333 2.333 0 01-2.333 2.334zM77.715 39.117a1.743 1.743 0 00-1.75 1.744v6.733c0 .967.784 1.75 1.75 1.75H93.39a1.75 1.75 0 001.75-1.75v-6.74a1.75 1.75 0 00-1.75-1.737H77.715z" fill="#231F20"/><path d="M96.018 41.874h-20.93a.32.32 0 010-.641h20.93a.32.32 0 010 .641zM96.018 44.542h-20.93a.32.32 0 010-.642h20.93a.327.327 0 01.32.321.32.32 0 01-.32.32zM96.018 47.21h-20.93a.32.32 0 010-.642h20.93a.327.327 0 01.32.32.32.32 0 01-.32.321zM124.497 92.559a.32.32 0 01-.32-.32v-11.05a.32.32 0 11.64 0v11.05a.32.32 0 01-.32.32z" fill="#231F20"/><path fill="#FFF" d="M121.209 93.758h13.157v48.267h-13.157z"/><path d="M134.366 142.359h-13.157a.32.32 0 01-.32-.32V93.757a.32.32 0 01.32-.32h13.157a.32.32 0 01.32.32v48.267a.32.32 0 01-.32.334zm-12.817-.642h12.516V94.08H121.53l.02 47.638z" fill="#231F20"/><path fill="#231F20" d="M121.209 91.257h6.575v2.501h-6.575z"/><path d="M127.785 94.079h-6.576a.32.32 0 01-.32-.321v-2.5a.32.32 0 01.32-.322h6.576a.32.32 0 01.32.321v2.501a.32.32 0 01-.32.32zm-6.255-.642h5.934v-1.86h-5.934v1.86z" fill="#231F20"/><path fill="#FFF" d="M133.392 48.171h39.463v93.854h-39.463z"/><path d="M172.855 48.171v93.854h-39.463V48.171h39.463m0-.641h-39.463a.641.641 0 00-.64.641v93.854c0 .354.286.642.64.642h39.463c.354 0 .641-.288.641-.642V48.171a.641.641 0 00-.64-.641z" fill="#231F20"/><path fill="#D1D3D4" d="M133.392 55.167h39.463v1h-39.463zM133.392 62.721h39.463v1h-39.463zM133.392 70.282h39.463v1h-39.463zM133.392 77.836h39.463v1h-39.463zM133.392 85.396h39.463v1h-39.463zM133.392 92.95h39.463v1h-39.463zM133.392 100.51h39.463v1h-39.463zM133.392 108.064h39.463v1h-39.463zM133.392 115.618h39.463v1h-39.463zM133.392 123.179h39.463v1h-39.463zM133.392 130.733h39.463v1h-39.463z"/><path fill="#FFF" d="M143.806 41.104h18.636v100.921h-18.636z"/><path d="M162.441 142.359h-18.635a.32.32 0 01-.32-.32V41.103a.32.32 0 01.32-.32h18.635a.32.32 0 01.32.32v100.921a.32.32 0 01-.32.334zm-18.315-.642h18.008V41.425h-18.008v100.292z" fill="#231F20"/><path d="M162.441 51.942h-18.635a.32.32 0 010-.642h18.635a.32.32 0 010 .642zM162.441 59.47h-18.635a.32.32 0 010-.641h18.635a.32.32 0 010 .641zM162.441 67.024h-18.635a.32.32 0 010-.641h18.635a.32.32 0 010 .641zM162.441 74.584h-18.635a.32.32 0 010-.64h18.635a.32.32 0 010 .64zM162.441 82.138h-18.635a.32.32 0 010-.64h18.635a.32.32 0 010 .64zM162.441 89.699h-18.635a.32.32 0 010-.641h18.635a.32.32 0 010 .64zM162.441 97.253h-18.635a.32.32 0 010-.641h18.635a.32.32 0 010 .64zM162.441 104.807h-18.635a.32.32 0 010-.641h18.635a.32.32 0 010 .64zM162.441 112.367h-18.635a.32.32 0 010-.641h18.635a.32.32 0 010 .641zM162.441 119.915h-18.635a.32.32 0 010-.641h18.635a.32.32 0 010 .64zM162.441 127.482h-18.635a.32.32 0 010-.642h18.635a.32.32 0 010 .642zM146.542 38.11h13.157v3.027h-13.157z" fill="#231F20"/><path d="M159.699 41.464h-13.157a.327.327 0 01-.32-.321V38.11a.327.327 0 01.32-.32h13.157a.32.32 0 01.32.32v3.033a.32.32 0 01-.32.32zm-12.817-.642h12.496V38.43h-12.516l.02 2.392z" fill="#231F20"/><path fill="#D1D3D4" d="M124.606 100.805h2.422v1h-2.422zM127.938 108.077h2.422v1h-2.422zM124.305 115.349h2.422v1h-2.422zM125.516 126.257h2.422v1h-2.422z"/><path fill="#E7816B" d="M103.112 134.959h72.46v7.067h-72.46z"/><path d="M175.592 142.32h-72.48a.301.301 0 01-.295-.295v-7.054a.295.295 0 01.295-.288h72.48a.289.289 0 01.294.288v7.054a.295.295 0 01-.294.295zm-72.185-.603h71.877v-6.476h-71.877v6.476z" fill="#231F20"/><path d="M122.574 130.72s4.256-4.591 16.771-4.591c12.516 0 16.765 4.591 16.765 4.591h-33.536z" fill="#E7816B"/><path d="M156.11 131.015h-33.536a.308.308 0 01-.269-.173.295.295 0 01.058-.32c.173-.193 4.486-4.682 16.982-4.682 12.497 0 16.803 4.489 16.983 4.681a.308.308 0 01.051.32.295.295 0 01-.27.174zm-32.747-.584h31.959c-1.526-1.167-6.236-4.007-15.977-4.007-9.74 0-14.457 2.84-15.982 4.007z" fill="#231F20"/><path d="M152.707 135.305h-26.73a.308.308 0 01-.256-.128l-3.089-4.239a.327.327 0 01.263-.513h32.894a.327.327 0 01.263.513l-3.082 4.239a.327.327 0 01-.263.128zm-26.563-.641h26.377l2.615-3.598h-31.613l2.62 3.598z" fill="#231F20"/><path d="M131.937 135.164l-3.204-3.918-2.852 3.905-.519-.378 3.095-4.239a.32.32 0 01.25-.135.359.359 0 01.257.122l3.486 4.239-.513.404z" fill="#231F20"/><path d="M138.903 135.164l-3.204-3.918-2.852 3.905-.519-.378 3.095-4.239a.32.32 0 01.25-.135.352.352 0 01.257.122l3.486 4.239-.513.404z" fill="#231F20"/><path d="M145.87 135.164l-3.205-3.918-2.852 3.905-.519-.378 3.095-4.239a.32.32 0 01.25-.135.34.34 0 01.257.122l3.486 4.239-.513.404z" fill="#231F20"/><path d="M152.835 135.164l-3.204-3.918-2.877 3.905-.513-.378 3.089-4.239c.058-.08.15-.13.25-.135a.352.352 0 01.256.122l3.486 4.239-.487.404zM111.084 142.038h-.64c.138-2.297.156-4.6.05-6.9.048.102.15.167.263.167v-.641l.25.109c.11.083.353.34.077 7.265zM120.594 142.038h-.64c.142-2.297.16-4.6.05-6.9.05.103.155.168.27.167v-.641l.243.109c.103.083.353.34.077 7.265zM130.092 142.038h-.641c.142-2.297.16-4.6.051-6.9.05.103.155.168.27.167v-.641l.243.109c.115.083.359.34.077 7.265zM139.602 142.038h-.641c.143-2.297.16-4.6.051-6.9.05.103.155.168.27.167v-.641l.243.109c.109.083.352.34.077 7.265z" fill="#231F20"/><path d="M149.105 142.038h-.64c.14-2.297.159-4.6.057-6.9.045.105.15.17.263.167v-.641l.25.109c.102.083.346.34.07 7.265zM158.61 142.038h-.642c.144-2.297.163-4.6.058-6.9.045.105.15.17.263.167v-.641l.25.109c.102.083.346.34.07 7.265zM168.113 142.038h-.641c.143-2.297.163-4.6.058-6.9.047.102.15.167.262.167v-.641l.25.109c.103.083.346.34.07 7.265z" fill="#231F20"/><path fill="#231F20" d="M103.112 136.761h72.46v1h-72.46zM181.36 142.628H.64a.32.32 0 010-.641h180.72a.32.32 0 010 .641z"/></g></g></svg>